<?xml version="1.0" standalone="no"?>
<!DOCTYPE svg PUBLIC "-//W3C//DTD SVG 1.1//EN" "http://www.w3.org/Graphics/SVG/1.1/DTD/svg11.dtd" >
<!--
2013-9-30: Created.
-->
<svg>
<metadata>
Created by iconfont
</metadata>
<defs>

<font id="iconfont" horiz-adv-x="1024" >
  <font-face
    font-family="iconfont"
    font-weight="500"
    font-stretch="normal"
    units-per-em="1024"
    ascent="896"
    descent="-128"
  />
    <missing-glyph />
    
    <glyph glyph-name="wenjian" unicode="&#59383;" d="M167.94 793.6h507.9c8.69 0 17.03-3.45 23.17-9.6 6.14-6.14 9.6-14.48 9.6-23.17v-638.97c0-8.69-3.45-17.03-9.6-23.17a32.759 32.759 0 0 0-23.17-9.6h-507.9c-8.69 0-17.03 3.45-23.17 9.6a32.741 32.741 0 0 0-9.6 23.17V760.83c0 18.1 14.67 32.77 32.77 32.77z m0 0M163.35 793.6l271.48-112.23c25.39-14.75 44.4-19.99 44.4-44.89v-617.19c0-24.74-3.6-44.89-28.18-44.89l-287.7 112.23c-26.54 9.5-28.18 20.15-28.18 44.89V748.38c0 24.9 3.6 45.22 28.18 45.22z m0 0M550.83 80.57c-7.66-0.09-13.98 5.95-14.25 13.6v415c0.27 7.65 6.6 13.69 14.25 13.6h244.61l85.2-81.92v-346.03c-0.27-7.65-6.6-13.69-14.25-13.6l-315.56-0.65z m0 0M792 515.07l80.44-77.99v-342.42a5.909 5.909 0 0 0-6.06-5.41H550.83c-1.52-0.09-3.02 0.43-4.15 1.45a5.739 5.739 0 0 0-1.91 3.96V509.17c0.08 1.52 0.77 2.95 1.91 3.96a5.71 5.71 0 0 0 4.15 1.45H792m6.72 16.38H550.83a21.97 21.97 0 0 1-15.78-6.19c-4.22-4.1-6.62-9.72-6.66-15.59v-415.01c0.13-5.82 2.57-11.35 6.78-15.38a21.99 21.99 0 0 1 15.67-6.08H866.4c5.82-0.13 11.46 2.05 15.67 6.08 4.21 4.03 6.65 9.56 6.78 15.38V443.64l-90.11 87.82v-0.5z m0 0M888.83 433.15h-76.35c-12.06 0-21.87 9.73-21.96 21.79v76.51l98.31-98.3z m-98.3-245.76h-196.6c-9.05 0-16.39-7.34-16.39-16.39s7.34-16.38 16.39-16.38h196.6c9.05 0 16.38 7.34 16.38 16.38 0 9.06-7.33 16.39-16.38 16.39z m0 65.54h-196.6c-9.05 0-16.39-7.34-16.39-16.38 0-9.05 7.34-16.39 16.39-16.39h196.6c9.05 0 16.38 7.34 16.38 16.39 0 9.04-7.33 16.38-16.38 16.38zM593.92 384h196.6c9.05 0 16.38 7.34 16.38 16.39s-7.33 16.38-16.38 16.38h-196.6c-9.05 0-16.39-7.34-16.39-16.38 0.01-9.06 7.34-16.39 16.39-16.39z m196.61-49.15h-196.6c-9.05 0-16.39-7.33-16.39-16.38 0-9.05 7.34-16.38 16.39-16.38h196.6c9.05 0 16.38 7.34 16.38 16.38s-7.33 16.38-16.38 16.38z m0 0"  horiz-adv-x="1024" />

    
    <glyph glyph-name="txtwenjianshangchuan" unicode="&#59384;" d="M570.069333 687.530667V733.098667c0 61.653333-55.637333 109.568-122.069333 109.568H132.736C66.304 842.666667 10.666667 794.752 10.666667 733.098667v-698.197334c0-61.653333 55.637333-109.568 122.069333-109.568H763.306667a32 32 0 1 1 0 64H132.693333c-33.024 0-58.069333 21.546667-58.069333 45.568V733.098667c0 24.021333 25.045333 45.568 58.069333 45.568H448c33.066667 0 58.069333-21.546667 58.069333-45.568v-77.568c0-17.706667 14.336-32 32-32h225.194667c33.024 0 58.069333-21.589333 58.069333-45.610667 0-16.725333-0.170667-25.941333-0.512-34.176l-0.256-5.205333c-0.213333-5.546667-0.341333-9.941333-0.341333-16.64a32 32 0 1 1 64 0c0 5.717333 0.085333 9.173333 0.298667 13.824l0.213333 5.290666c0.426667 9.216 0.597333 19.328 0.597333 36.906667 0 61.696-55.637333 109.610667-122.069333 109.610667H570.026667zM298.666667 554.666667h597.333333a85.333333 85.333333 0 0 0 85.333333-85.333334v-458.453333a85.333333 85.333333 0 0 0-85.333333-85.333333H213.333333V469.333333a85.333333 85.333333 0 0 0 85.333334 85.333334zM547.328 274.773333L481.28 208.64a32 32 0 0 0-45.226667 45.226667l120.661334 120.746666a32 32 0 0 0 45.226666 0l120.746667-120.746666a32 32 0 1 0-45.269333-45.226667l-66.090667 66.048v-187.648a32 32 0 1 0-64 0v187.648z"  horiz-adv-x="1024" />

    
    <glyph glyph-name="wenjian2" unicode="&#59385;" d="M922.112-14.336h-820.224c-22.016 0-39.424 17.92-39.424 39.424V671.744c0 22.016 17.92 39.424 39.424 39.424h820.224c22.016 0 39.424-17.92 39.424-39.424v-646.656c0-22.016-17.92-39.424-39.424-39.424zM512 541.184h-449.536v201.728c0 22.016 17.92 39.424 39.424 39.424h307.712c17.408 0 32.768-11.264 37.888-28.16l64.512-212.992zM859.648 34.816h-695.296c-22.016 0-39.424 17.92-39.424 39.424V611.328c0 22.016 17.92 39.424 39.424 39.424h695.296c22.016 0 39.424-17.92 39.424-39.424v-537.088c0.512-21.504-17.408-39.424-39.424-39.424zM922.112-14.336h-820.224c-22.016 0-39.424 17.92-39.424 39.424v512c0 22.016 17.92 39.424 39.424 39.424h820.224c22.016 0 39.424-17.92 39.424-39.424v-512c0-22.016-17.92-39.424-39.424-39.424zM729.6-14.336l-327.168 450.56-255.488-11.264 97.28-130.048-97.28-4.608 228.352-304.64h354.304zM382.976 412.672h-217.6c-10.752 0-19.968 8.704-19.968 19.968s8.704 19.968 19.968 19.968h217.6c10.752 0 19.968-8.704 19.968-19.968s-9.216-19.968-19.968-19.968z m0-134.144h-217.6c-10.752 0-19.968 8.704-19.968 19.968s8.704 19.968 19.968 19.968h217.6c10.752 0 19.968-8.704 19.968-19.968-0.512-11.264-9.216-19.968-19.968-19.968z"  horiz-adv-x="1024" />

    
    <glyph glyph-name="chexiao1" unicode="&#59382;" d="M512.006736 895.999433A511.206094 511.206094 0 0 1 0.00702 383.999717c0-282.246079 229.69695-511.999717 511.999716-511.999717 282.246079 0 511.999717 229.753637 511.999717 511.999717C1024.006453 666.302483 794.252816 895.999433 512.006736 895.999433zM455.319434 157.250506l-283.436513 226.749211 283.4932 283.436512v-170.061907c183.213362-21.087677 396.811118-96.595164 396.811118-340.123816-110.823676 102.830767-259.911282 170.118595-396.811118 170.118595v-170.118595H455.319434z"  horiz-adv-x="1027" />

    
    <glyph glyph-name="xiajiang" unicode="&#59380;" d="M258.2079999999999 327.1680000000001L511.9679999999998 48l253.7600000000001 279.16799999999995c21.856000000000005 24.063999999999993 13.312000000000005 43.519999999999996-19.039999999999985 43.52000000000001L629.28 370.688 629.2800000000002 693.28c1.0658141036401503e-14 32.544-26.239999999999977 58.75200000000002-58.62399999999999 58.752000000000024l-117.44 3.552713678800501e-14a58.56 58.56 0 0 1-58.62400000000002-58.751999999999995L394.5919999999999 370.65599999999995l-117.40799999999999 3.552713678800501e-14c-32.192 1.0658141036401503e-14-40.832-19.45599999999999-18.976000000000013-43.487999999999985z"  horiz-adv-x="1024" />

    
    <glyph glyph-name="web-icon-" unicode="&#59381;" d="M766.784 472.832l-253.76 279.168-253.76-279.16799999c-21.856-24.064-13.312-43.52 19.03999999-43.52000001l117.40800001 0L395.712 106.75199999999995c0-32.544 26.24-58.752 58.624-58.752l117.44 0A58.56 58.56 0 0 1 630.4 106.75199999999995l0 322.592L747.712 429.344c32.288 0 40.896 19.456 19.072 43.488z"  horiz-adv-x="1024" />

    
    <glyph glyph-name="wenjianjia" unicode="&#59379;" d="M907.6 490.5v-334.7c0-29.2-10.5-54.2-31.4-75.1-20.9-20.9-46-31.4-75.1-31.4H222.9c-29.2 0-54.2 10.5-75.1 31.4s-31.4 46-31.4 75.1V612.2c0 29.2 10.5 54.2 31.4 75.1s46 31.4 75.1 31.4H375c29.2 0 54.2-10.5 75.1-31.4s31.4-46 31.4-75.1V597H801c29.2 0 54.2-10.5 75.1-31.4 21-20.9 31.5-45.9 31.5-75.1z"  horiz-adv-x="1024" />

    
    <glyph glyph-name="meeting" unicode="&#59375;" d="M841.888 830.816h-659.776c-100.416 0-182.112-81.76-182.112-182.24v-245.6c0-12.768 10.336-23.136 23.136-23.136 12.768 0 23.136 10.368 23.136 23.136v245.6c0 74.976 60.928 135.968 135.84 135.968h659.808c74.912 0 135.84-60.992 135.84-135.968v-245.6c0-12.768 10.368-23.136 23.136-23.136s23.104 10.368 23.104 23.136v245.6c0 100.48-81.664 182.24-182.112 182.24zM832.192 186.976c-8.64-9.408-8-24.064 1.408-32.704 35.904-32.992 56.512-79.84 56.512-128.608 0-12.8 10.368-23.136 23.136-23.136 12.768 0 23.136 10.368 23.136 23.136 0 61.664-26.080 120.992-71.52 162.72-9.376 8.608-24.032 8-32.672-1.408zM314.016 204.128c6.336 3.872 10.944 10.4 11.328 18.368 0.608 12.8-9.248 23.616-22.016 24.224-54.208 2.56-96.672 47.072-96.672 101.344 0 44.928 30.112 85.024 73.248 97.568 12.256 3.552 19.328 16.416 15.744 28.672-3.552 12.256-16.416 19.36-28.64 15.776-62.752-18.24-106.624-76.608-106.624-141.984 0-49.12 23.904-92.736 60.928-119.616-79.008-33.6-133.728-111.488-133.728-202.752 0-12.8 10.368-23.136 23.136-23.136 12.768 0 23.136 10.368 23.136 23.136 0 94.368 73.888 170.848 168.192 174.144 4.576 0.096 8.48 1.856 11.968 4.256zM756.96 490.048c-12.224 3.616-25.12-3.488-28.672-15.776s3.488-25.12 15.744-28.672c43.136-12.544 73.248-52.64 73.248-97.568 0-54.272-42.464-98.784-96.672-101.344-12.768-0.608-22.624-11.456-22.016-24.224 0.608-12.416 10.816-22.048 23.104-22.048 0.352 0 0.736 0 1.088 0 78.944 3.744 140.768 68.576 140.768 147.616 0.032 65.408-43.808 123.808-106.592 142.016zM512 561.312c-101.6 0-184.224-82.72-184.224-184.384 0-65.792 34.72-123.488 86.656-156.128-105.376-39.68-180.704-141.312-180.704-260.48 0-12.8 10.336-23.136 23.136-23.136 12.768 0 23.136 10.368 23.136 23.136 0 128.032 104.096 232.224 232.032 232.224 101.6 0 184.256 82.72 184.256 184.416-0.032 101.664-82.72 184.352-184.288 184.352zM512 238.816c-76.096 0-137.984 61.952-137.984 138.112s61.888 138.080 137.984 138.080c76.096 0 137.984-61.952 137.984-138.080 0-76.16-61.888-138.112-137.984-138.112zM667.392 164.192c-8.64-9.408-8-24.064 1.408-32.704 47.808-43.904 75.2-106.272 75.2-171.168 0-12.8 10.336-23.136 23.136-23.136 12.768 0 23.136 10.368 23.136 23.136 0 77.824-32.896 152.64-90.208 205.28-9.344 8.608-24 8-32.672-1.408z"  horiz-adv-x="1025" />

    
    <glyph glyph-name="yongcan" unicode="&#59377;" d="M443.2 602.1c-58.3 44.9-55.6 128.2-7.7 172 44.9 41.1 114.6 39 157-5.2 43-44.8 43.1-121.9-13.1-166.8 8.9-2 17.5-3.9 26-5.9 144.2-34.8 258.9-152.8 288.9-297.6 3.6-17.6 5.6-35.5 7.8-53.3 0.5-4.3 1.5-6.5 5.9-8.3 33-13.8 53.7-47.5 51.2-82.7-2.5-35.8-27-66-61.6-75.3-7.2-1.9-14.9-2.9-22.3-2.9-242.6-0.2-485.3-0.2-727.9-0.1-40.9 0-74.3 28.1-82.4 68.8-7.6 38.1 13.7 77.3 50.6 92.6 3.7 1.5 4.8 3.5 5.1 7.2 4.2 57.7 19.8 112.3 48.8 162.4 60.6 104.9 150.4 169.7 269.3 194 1.3 0.2 2.7 0.7 4.4 1.1z m67.4-470.3h359.2c2.3 0 4.7-0.1 7 0.1 14.8 1 26.5 13.2 26.5 27.9 0 14.2-11.2 26.6-25.3 27.8-21.6 1.8-29.8 11.3-31.1 33.1-1.3 20.6-2.5 41.4-6.6 61.6-35.7 178.6-208.6 296.1-387.7 264.2-158.7-28.4-275.2-165.6-277-326.5-0.2-20.6-9.8-30.8-30.5-32.4-21.1-1.6-32.7-25.8-20.8-43.3 6.2-9.1 15.1-12.6 25.9-12.6 120.1 0.1 240.3 0.1 360.4 0.1z m56.6 559.8c0.1 30.9-25 56.2-55.9 56.1-30.7-0.1-55.8-25-55.9-55.6-0.1-31 24.8-56.3 55.6-56.4 31-0.1 56.1 24.9 56.2 55.9z m-55.4-671.7h416.1c16.6 0 27.6-8.1 30.7-22.6 3.2-14.9-7-30.3-22.1-32.8-3.4-0.6-6.9-0.7-10.4-0.7H96.2c-16.6 0-27.2 6.6-31.4 19.5-5.2 16 5.1 33.1 21.6 35.9 3.2 0.5 6.5 0.6 9.8 0.6 138.6 0.1 277.1 0.1 415.6 0.1z m-10.1 475.5c4.4 0 8.9 0.4 13.3-0.1 13.5-1.5 23.7-12.7 24.2-26.2 0.5-14.3-8.7-26.6-22.6-28.6-9.3-1.4-18.9-0.9-28.3-2.1-89.5-11.7-151.1-60-186-142.9-1-2.5-1.8-5.1-3-7.5-6.4-13.5-22-19.6-35.7-14.1-13.7 5.5-20.9 20.6-16 34.9 10.8 31.4 26.9 59.9 48.2 85.3 45.1 53.9 102.5 86.7 171.8 98.2 11.2 1.9 22.7 2.5 34 3.7 0.1-0.2 0.1-0.4 0.1-0.6z"  horiz-adv-x="1024" />

    
    <glyph glyph-name="hotel" unicode="&#59374;" d="M958.97 1.712v478.543c0 52.902-43.039 95.941-95.941 95.941h-159.978v159.902c0 52.902-43.039 95.941-95.941 95.941l-447.724-0c-52.902 0-95.941-43.039-95.941-95.941v-734.386h-62.422v-63.961h191v63.961h-64.618v734.386c0 17.634 14.347 31.98 31.98 31.98h447.725c17.634 0 31.98-14.347 31.98-31.98v-734.386h-63.327v-63.961h193.405v63.961h-66.117l0 510.523h159.977c17.634 0 31.98-14.347 31.98-31.98v-478.544h-62.396v-63.961h191.78v63.961l-65.423 0zM256.492 1.712h254.803v-63.961h-254.803v63.961zM191.509 640.002h127.921v-127.921h-127.921v127.921zM447.791 640.002h127.921v-127.921h-127.921v127.921zM191.509 447.961h127.921v-127.921h-127.921v127.921zM447.791 447.961h127.921v-127.921h-127.921v127.921zM768.653 447.961h63.961v-127.921h-63.961v127.921zM768.653 256.602h63.961v-127.921h-63.961v127.921zM191.509 256.602h127.921v-127.921h-127.921v127.921zM447.791 256.602h127.921v-127.921h-127.921v127.921z"  horiz-adv-x="1040" />

    
    <glyph glyph-name="qiye" unicode="&#59373;" d="M579.958276 686.454656c-6.67912-10.485819-14.291494-19.961634-21.902846-30.446429 119.922277-134.136 257.863952-206.445886 399.611304-263.534092-21.825075-19.029402-46.601364-49.475831-57.087183-77.087703-137.941676 64.698534-266.407536 140.815119-391.999952 279.727912C404.891052 478.066535 266.017144 381.057107 123.25979 316.358573c-13.359262 22.835078-38.057781 54.213739-60.892859 75.145467C234.560712 459.038156 405.822261 581.794991 500.036016 724.51346L579.958276 686.454656zM561.861106-49.971743l351.145475 0 0-80.893378L108.968295-130.865121l0 80.893378 113.242134 0L222.210429 290.650051l86.60138 0 0-340.620771L468.657354-49.97072 468.657354 453.368016l93.203752 0 0-208.388121 264.543072 0 0-78.990029L561.861106 165.989867 561.861106-49.971743z"  horiz-adv-x="1024" />

    
    <glyph glyph-name="zuoweianpai" unicode="&#59372;" d="M877.2 477h-61V730c0 21-17 38-38 38H245.8c-21 0-38-17-38-38v-253h-61c-21 0-38-17-38-38v-401c0-21 17-38 38-38h730.4c21 0 38 17 38 38V439c0 21-17 38-38 38zM267.8 708h488.4v-231H701c-21 0-38-17-38-38v-170.5H361V439c0 21-17 38-38 38h-55.2V708z m587.4-648H168.8V417H301v-170.5c0-21 17-38 38-38h346c21 0 38 17 38 38V417h132.2v-357z"  horiz-adv-x="1024" />

    
    <glyph glyph-name="qiandai" unicode="&#59365;" d="M522.24 791.552q2.048 0 5.12 2.048 6.144 4.096 16.384 14.336 12.288 11.264 24.576 16.384t32.768-3.072q10.24-3.072 16.384-8.704t11.776-10.752 12.288-8.704 16.896-3.584 17.408 3.072 13.824 5.632 13.312 3.584 15.872-2.048q10.24-4.096 13.824-11.776t2.048-15.872-7.168-16.384-13.824-13.312q-19.456-12.288-29.696-25.088t-20.48-27.136q-5.12-7.168-11.264-16.384t-11.264-18.432q-6.144-11.264-13.312-21.504l-211.968 0q-7.168 12.288-14.336 23.552-6.144 10.24-13.312 20.48t-12.288 18.432q-10.24 15.36-23.04 27.136t-25.088 20.992q-13.312 9.216-18.432 25.088t9.216 27.136q7.168 5.12 16.384 4.096t19.456-4.096 19.968-6.144 17.92-1.024q14.336 3.072 21.504 10.752t24.576 18.944q13.312 8.192 29.696 5.632t24.576-10.752q4.096-5.12 8.704-8.704t9.728-6.656q5.12-4.096 11.264-7.168zM637.952 586.752q12.288-16.384 30.72-35.84 15.36-17.408 37.888-39.424t52.224-46.592q24.576-21.504 50.688-50.688t45.568-68.096 27.136-89.6-2.56-113.152q-9.216-51.2-36.352-96.768t-72.192-79.36-107.008-53.76-140.8-19.968q-80.896 0-143.36 23.04t-105.984 59.904-69.12 82.432-33.792 90.624q-9.216 50.176-2.56 96.256t24.064 86.528 43.52 74.24 56.832 60.416q26.624 23.552 48.128 44.544t35.84 38.4q17.408 19.456 30.72 36.864l230.4 0zM529.408 272.384l-27.648 27.648-21.504 21.504q-10.24 10.24-14.336 15.36-8.192 7.168-21.504 11.776t-22.528-5.632q-8.192-11.264-4.096-22.016t9.216-16.896l15.36-14.336q11.264-12.288 24.576-26.624 15.36-16.384 33.792-34.816l-1.024-21.504-69.632 0q-9.216 0-15.872-7.168t-6.656-15.36 6.144-14.336 16.384-6.144l69.632 0 0-35.84-69.632 0q-9.216 0-15.872-5.632t-6.656-14.848q-1.024-8.192 5.632-13.824t16.896-5.632l69.632 0 0-20.48q1.024-14.336 9.216-19.968t20.48-5.632q12.288-1.024 19.968 7.68t7.68 17.92l0 20.48 71.68 0q10.24 0 16.896 4.608t5.632 14.848q0 21.504-28.672 21.504l-65.536 0 1.024 34.816 66.56 1.024q14.336-1.024 20.48 5.632t6.144 15.872q0 8.192-6.656 14.848t-20.992 6.656l-66.56 0 0 19.456q17.408 16.384 31.744 31.744 12.288 12.288 24.576 25.088t18.432 17.92q23.552 20.48 10.24 35.84-7.168 9.216-18.432 9.216t-20.48-8.192q-5.12-4.096-17.408-14.848t-24.576-22.016q-14.336-13.312-31.744-29.696z"  horiz-adv-x="1024" />

    
    <glyph glyph-name="xinyongqia" unicode="&#59366;" d="M848 640l-672 0c-26.88 0-48-21.76-48-48L128 544l768 0 0 48C896 618.24 874.24 640 848 640zM128 176c0-26.88 21.76-48 48-48l672 0c26.88 0 48 21.12 48 48L896 480 128 480 128 176zM256 384l384 0 0-32L256 352 256 384zM256 288l256 0 0-32L256 256 256 288z"  horiz-adv-x="1024" />

    
    <glyph glyph-name="ren" unicode="&#59367;" d="M508.586667 356.693333c146.773333 0 269.653333 119.466667 269.653333 262.826667 0 146.773333-119.466667 262.826667-269.653333 262.826667S242.346667 766.293333 242.346667 619.52c0-146.773333 119.466667-262.826667 266.24-262.826667z m-102.4-47.786666c-187.733333 0-327.68-126.293333-327.68-310.613334v-20.48c0-95.573333 150.186667-95.573333 341.333333-95.573333h201.386667c180.906667 0 341.333333 0 341.333333 95.573333v20.48c0 184.32-139.946667 310.613333-327.68 310.613334h-228.693333z"  horiz-adv-x="1024" />

    
    <glyph glyph-name="qianbao" unicode="&#59368;" d="M546.525867 395.707733c6.075733 90.589867 85.504 158.958933 176.298666 158.958934H853.333333a34.133333 34.133333 0 0 1 34.133334 34.133333v136.533333c0 37.546667-30.72 68.266667-68.266667 68.266667H68.266667c-37.546667 0-68.266667-30.72-68.266667-68.266667v-682.666666c0-37.546667 30.72-68.266667 68.266667-68.266667h750.933333c37.546667 0 68.266667 30.72 68.266667 68.266667v136.533333a34.133333 34.133333 0 0 1-34.133334 34.133333h-136.533333c-97.979733 0-176.930133 82.9952-170.274133 182.3744zM921.6 486.4H716.8a102.4 102.4 0 1 1 0-204.8h204.8a102.4 102.4 0 1 1 0 204.8z"  horiz-adv-x="1024" />

    
    <glyph glyph-name="zichan" unicode="&#59369;" d="M992.75354095 723.35544067c0 37.70616007-33.93554407 69.75639613-92.38009217 92.38009218-52.7886241 20.73838803-122.54502023 30.16492806-196.07203239 30.16492806s-143.28340828-11.31184801-196.07203239-30.16492806c-60.32985613-22.62369604-94.26540019-54.67393211-94.26540019-92.38009218v-177.21895235c-22.62369604 1.885308-47.1327001 3.770616-71.64170415 3.770616-73.52701215 0-143.28340828-11.31184801-196.07203239-30.16492805-60.32985613-22.62369604-92.38009218-56.55924012-92.38009218-92.38009218V44.64455932999999c0-37.70616007 33.93554407-69.75639613 92.38009218-92.38009218 52.7886241-20.73838803 122.54502023-30.16492806 196.07203239-30.16492806s143.28340828 11.31184801 196.07203239 30.16492806c52.7886241 20.73838803 84.83886017 47.1327001 92.38009218 79.18293616 24.50900404-1.885308 49.01800811-3.770616 73.52701216-3.77061601 73.52701215 0 143.28340828 11.31184801 196.07203239 30.16492806 60.32985613 22.62369604 92.38009218 54.67393211 92.38009217 92.38009218V723.35544067zM945.62084086 291.61990782c0-32.05023607-94.26540019-77.29762816-243.20473249-77.29762816-24.50900404 0-49.01800811 1.885308-71.64170414 3.77061602v96.15070819c22.62369604-1.885308 47.1327001-3.770616 71.64170414-3.77061602 73.52701215 0 143.28340828 11.31184801 196.0720324 30.16492806 18.85308003 7.54123201 33.93554407 15.08246403 47.13270009 22.62369606v-71.64170415z m-361.97913672 1.885308c0-32.05023607-96.15070819-77.29762816-243.20473247-77.29762815S97.23223918 261.45497977 97.23223918 293.50521582v64.10047213c13.19715602-7.54123201 28.27962006-16.96777203 47.13270009-22.62369606 52.7886241-20.73838803 122.54502023-30.16492806 196.0720324-30.16492805s143.28340828 11.31184801 196.07203237 30.16492805c18.85308003 7.54123201 33.93554407 15.08246403 47.1327001 22.62369606v-64.10047213z m-488.29477296-69.75639614c13.19715602-7.54123201 28.27962006-16.96777203 47.13270008-22.62369605 52.7886241-20.73838803 122.54502023-30.16492806 196.0720324-30.16492806s143.28340828 11.31184801 196.07203238 30.16492806c18.85308003 7.54123201 33.93554407 15.08246403 47.13270009 22.62369605v-54.67393211c0-32.05023607-96.15070819-77.29762816-243.20473247-77.29762816s-243.20473248 45.24739209-243.20473248 77.29762816v54.67393211zM945.62084086 433.01800811c0-32.05023607-96.15070819-77.29762816-243.20473249-77.29762817-24.50900404 0-49.01800811 1.885308-71.64170414 3.77061602v65.98578013c0 9.42654002-1.885308 20.73838803-7.54123202 30.16492805 26.39431205-1.885308 52.7886241-3.770616 79.18293616-3.77061601 73.52701215 0 143.28340828 11.31184801 196.0720324 30.16492806 18.85308003 7.54123201 33.93554407 15.08246403 47.13270009 22.62369603v-71.64170411z m0 141.39810026c0-32.05023607-94.26540019-77.29762816-243.20473249-77.29762816s-243.20473248 45.24739209-243.20473247 77.29762816v79.18293617c13.19715602-7.54123201 28.27962006-16.96777203 47.13270008-22.62369604 52.7886241-20.73838803 122.54502023-30.16492806 196.07203239-30.16492807s143.28340828 11.31184801 196.0720324 30.16492807c18.85308003 7.54123201 33.93554407 15.08246403 47.13270009 22.62369604v-79.18293617zM702.41610837 802.5383768199999c148.9393323 0 243.20473248-45.24739209 243.20473249-77.29762815 0-32.05023607-94.26540019-77.29762816-243.20473249-77.29762815s-243.20473248 45.24739209-243.20473247 77.29762815c-1.885308 30.16492806 94.26540019 77.29762816 243.20473247 77.29762815zM340.43697167 504.65971222c33.93554407 0 62.21516412-1.885308 90.49478417-5.65592399h1.885308c94.26540019-13.19715602 150.82464031-47.1327001 150.8246403-71.64170414 0-32.05023607-96.15070819-77.29762816-243.20473247-77.29762816S97.23223918 395.31184801 97.23223918 427.36208409c-1.885308 30.16492806 94.26540019 77.29762816 243.20473249 77.29762813z m0-539.19808904C191.49763937-34.53837682000005 97.23223918 10.709015260000001 97.23223918 42.759251329999984v54.67393209c13.19715602-7.54123201 28.27962006-16.96777203 47.13270009-22.62369603 52.7886241-18.85308003 122.54502023-30.16492806 196.0720324-30.16492806s143.28340828 11.31184801 196.07203237 30.16492806c18.85308003 7.54123201 33.93554407 15.08246403 47.1327001 22.62369603v-54.67393209c0-30.16492806-94.26540019-77.29762816-243.20473247-77.29762815z m361.9791367 107.4625562c-24.50900404 0-49.01800811 1.885308-71.64170414 3.77061602v96.15070819c22.62369604-1.885308 47.1327001-3.770616 71.64170414-3.77061602 73.52701215 0 143.28340828 11.31184801 196.0720324 30.16492806 18.85308003 7.54123201 33.93554407 15.08246403 47.13270009 22.62369605v-71.64170414c0-32.05023607-94.26540019-77.29762816-243.20473249-77.29762816z"  horiz-adv-x="1024" />

    
    <glyph glyph-name="dollar" unicode="&#59370;" d="M512 832C264.7 832 64 631.3 64 384s200.7-448 448-448 448 200.7 448 448S759.3 832 512 832z m42.7-616.8v-22.5c0-18.1-14.3-32.8-32.1-32.8h-21.2c-17.7 0-32.1 14.6-32.1 32.8v22.1c-32.4 2.3-62.4 14.3-86.7 33.5-15.2 12-16.4 35-2.9 49l15.2 15.3c11.3 11.7 28.8 12.4 42 3 12.1-8.9 27-14.1 43-14.1h63.8c12.6 0 24.6 7.1 29.5 18.6 7.8 18.1-2.2 37.8-19.1 42.9l-108.9 33.3c-48.3 14.8-81 58.9-82.6 110.1-1.7 62.4 46.9 114.3 106.6 121.1V650c0 18.1 14.3 32.8 32.1 32.8h21.2c17.7 0 32.1-14.6 32.1-32.8v-22.1c32.4-2.3 62.4-14.3 86.8-33.5 15-12 16.2-35 2.7-48.8L629 530c-11.3-11.7-28.8-12.4-41.8-3-12.3 8.9-27.1 14.1-43.2 14.1h-64c-16 0-30.5-12-31.9-28.4-1.4-15.2 7.7-28.7 21.7-33.1l108.9-33.3c48.3-14.8 81-58.9 82.6-110.1 1.7-62.3-46.9-114.2-106.6-121z"  horiz-adv-x="1024" />

    
    <glyph glyph-name="icon_assets" unicode="&#59371;" d="M56.32 120.832v-76.8c0-63.488 154.624-115.712 346.112-115.712S747.52-20.48 747.52 44.032v76.8c-74.752-52.224-209.92-76.8-346.112-76.8-135.168 0-270.336 23.552-345.088 76.8zM632.832 619.52c190.464 0 345.088 51.2 345.088 115.712 0 63.488-154.624 115.712-345.088 115.712S286.72 798.72 286.72 734.208C286.72 670.72 441.344 619.52 632.832 619.52zM56.32 309.248v-93.184c0-63.488 154.624-115.712 346.112-115.712S747.52 152.576 747.52 216.064v93.184c-74.752-61.44-209.92-93.184-346.112-93.184-135.168 0-270.336 31.744-345.088 93.184z m748.544-19.456c103.424 20.48 173.056 57.344 173.056 99.328V465.92c-41.984-29.696-103.424-50.176-173.056-62.464v-113.664zM401.408 562.176c-190.464 0-346.112-64.512-346.112-144.384s154.624-144.384 346.112-144.384S747.52 337.92 747.52 417.792 592.896 562.176 401.408 562.176z m395.264-101.376c107.52 19.456 181.248 57.344 181.248 101.376v76.8c-63.488-45.056-174.08-69.632-288.768-74.752 52.224-26.624 92.16-61.44 107.52-103.424z"  horiz-adv-x="1024" />

    
    <glyph glyph-name="yuandianda" unicode="&#59438;" d="M480 416m-416 0a6.5 6.5 0 1 0 832 0 6.5 6.5 0 1 0-832 0Z"  horiz-adv-x="1024" />

    
    <glyph glyph-name="dingdanlvyue-" unicode="&#59364;" d="M522.916 766.768c-207.56 0-375.843-168.282-375.843-375.859 0-207.577 168.283-375.842 375.843-375.842 207.578 0 375.842 168.265 375.842 375.842S730.494 766.768 522.916 766.768z m0.122-568.157c-17.193 0.348-31.134 14.479-30.925 31.358 0.209 15.923 14.323 29.48 30.716 29.498 17.036 0 31.394-14.532 30.802-31.203-0.557-16.253-14.723-29.984-30.593-29.653z m-27.531 376.955c0.069 21.667 11.156 35.274 27.966 34.77 16.098-0.47 26.713-13.817 26.73-34.317 0.086-79.651 0.104-159.285-0.018-238.936-0.035-20.987-10.337-33.432-27.096-33.588-16.828-0.157-27.479 12.321-27.566 33.135-0.174 40.113-0.052 80.226-0.052 120.339 0.001 39.521-0.069 79.059 0.036 118.597z"  horiz-adv-x="1024" />

    
    <glyph glyph-name="zuosanjiao-copy" unicode="&#59361;" d="M661.769 662.417v-499.661l-298.81 250.227 298.81 249.434zM661.769 662.417z"  horiz-adv-x="1000" />

    
    <glyph glyph-name="zuosanjiao-copy1" unicode="&#59363;" d="M404.89816666666655 105.58260000000018l1.7053025658242404e-13 499.6612296862727 298.8096999999999-250.22730000000016L404.89816666666655 105.58260000000018zM404.89816666666655 105.58260000000018"  horiz-adv-x="1000" />

    
    <glyph glyph-name="yingyongzhongxin" unicode="&#59355;" d="M448.512 896q26.624 0 45.568-18.944t18.944-45.568l0-319.488q0-26.624-18.944-45.568t-45.568-18.944l-319.488 0q-26.624 0-45.568 18.944t-18.944 45.568l0 319.488q0 26.624 18.944 45.568t45.568 18.944l319.488 0zM961.536 896q26.624 0 45.056-18.944t18.432-45.568l0-319.488q0-26.624-18.432-45.568t-45.056-18.944l-320.512 0q-26.624 0-45.568 18.944t-18.944 45.568l0 319.488q0 26.624 18.944 45.568t45.568 18.944l320.512 0zM448.512 384q26.624 0 45.568-18.944t18.944-45.568l0-320.512q0-26.624-18.944-45.056t-45.568-18.432l-319.488 0q-26.624 0-45.568 18.432t-18.944 45.056l0 320.512q0 26.624 18.944 45.568t45.568 18.944l319.488 0zM961.536 384q26.624 0 45.056-18.944t18.432-45.568l0-320.512q0-26.624-18.432-45.056t-45.056-18.432l-320.512 0q-26.624 0-45.568 18.432t-18.944 45.056l0 320.512q0 26.624 18.944 45.568t45.568 18.944l320.512 0z"  horiz-adv-x="1026" />

    
    <glyph glyph-name="database" unicode="&#59357;" d="M511.875 767.875c-211.875 0-383.75-76.25-383.75-170.625 0-94.375 171.875-170.625 383.75-170.625 211.875 0 383.75 76.25 383.75 170.625C896.25 691.625 724.375 767.875 511.875 767.875M128.125 512.25l0-128.125c0-94.375 171.875-170.625 383.75-170.625 211.875 0 383.75 76.25 383.75 170.625l0 128.125c0-94.375-171.875-170.625-383.75-170.625C300 341 128.125 417.875 128.125 512.25M128.125 298.5l0-128.125c0-94.375 171.875-170.625 383.75-170.625 211.875 0 383.75 76.25 383.75 170.625l0 128.125c0-94.375-171.875-170.625-383.75-170.625C300 127.875 128.125 204.125 128.125 298.5z"  horiz-adv-x="1024" />

    
    <glyph glyph-name="zhuzhuangtu" unicode="&#59358;" d="M0.00553 476.855314a46.181952 46.181952 0 0 0 47.102951 46.816951h92.157905a47.389951 47.389951 0 0 0 46.898951-46.816951v-557.926423a46.139952 46.139952 0 0 0-46.898951-46.918951H47.108481A47.409951 47.409951 0 0 0 0.00553-81.153108v558.009422zM279.347241 849.359928A46.037952 46.037952 0 0 0 326.245192 895.99188h92.158905a47.225951 47.225951 0 0 0 47.102951-46.631952V-81.359108a46.979951 46.979951 0 0 0-13.720986-33.258966 46.099952 46.099952 0 0 0-33.381965-13.372986h-92.158905a47.102951 47.102951 0 0 0-46.897951 46.713952V849.359928z m279.137711-558.213422a46.099952 46.099952 0 0 0 47.102951 46.365952h92.157905a46.099952 46.099952 0 0 0 46.898951-46.365952v-372.729614a45.649953 45.649953 0 0 0-13.516986-33.135966 46.385952 46.385952 0 0 0-33.381965-13.229986h-92.157905a46.119952 46.119952 0 0 0-47.102951 46.365952v372.729614zM837.826663 570.200217a46.017952 46.017952 0 0 0 46.898951 46.549952h92.157905a47.102951 47.102951 0 0 0 47.102951-46.549952v-651.559325a46.079952 46.079952 0 0 0-47.102951-46.549952h-92.157905a47.225951 47.225951 0 0 0-46.898951 46.549952v651.559325z m0 0"  horiz-adv-x="1024" />

    
    <glyph glyph-name="yidongduanicon-" unicode="&#59359;" d="M512 772.81c-19.73 0-39.47-3.71-54.46-11.21L140.06 602.85c-30-15-30-39.48 0-54.46l317.45-158.76c15.05-7.49 34.79-11.21 54.52-11.21s39.48 3.72 54.46 11.21L884 548.39c30 15 30 39.47 0 54.46L566.49 761.6c-15 7.5-34.72 11.21-54.46 11.21z m0-588.36c-24.36 0-48.67 4.87-68.1 14.56L132.87 354.48A30.48 30.48 0 0 0 160.16 409l311-155.53c21.44-10.72 60.31-10.72 81.75 0L863.9 409a30.47 30.47 0 0 0 27.24-54.52L580.14 199A155.78 155.78 0 0 0 512 184.45z m0-188.85c-24.36 0-48.67 4.87-68.1 14.56l-311 155.53a30.44 30.44 0 1 0 27.23 54.46l311-155.53c21.44-10.72 60.31-10.72 81.75 0l311 155.53a30.47 30.47 0 1 0 27.24-54.52l-311-155.47c-19.41-9.75-43.72-14.56-68.12-14.56z"  horiz-adv-x="1024" />

    
    <glyph glyph-name="shuju24" unicode="&#59360;" d="M101.344 45.328h237.328V426.672L273.728 472 101.344 325.328z m293.328 0H632v379.12L517.344 328l-122.672 66.672z m293.328 424v-424h237.328V466.672L824.016 600zM140.544 431.456l129.072 107.968 246.576-150.112 292.416 275.392c1.056 0.992 1.92 2.144 2.816 3.248l49.248-49.808 79.312 223.2-227.52-73.296 54.448-55.072c-0.72-0.56-1.488-1.024-2.176-1.664L507.824 469.344 263.744 617.92 99.488 480.544c-13.568-11.344-15.36-31.52-4.016-45.072s31.536-15.376 45.072-4.016zM920 1.344H100c-17.664 0-32-14.336-32-32s14.336-32 32-32h820c17.664 0 32 14.336 32 32s-14.336 32-32 32z"  horiz-adv-x="1024" />

    
    <glyph glyph-name="shujukanban" unicode="&#59362;" d="M911.5648 895.351467H100.386133A99.396267 99.396267 0 0 1 0.955733 795.9552V238.250667a99.396267 99.396267 0 0 1 99.4304-99.396267h353.8944v-151.620267H254.464a99.396267 99.396267 0 0 1-99.396267-99.396266H860.842667a99.396267 99.396267 0 0 1-99.4304 99.396266h-203.776v150.1184h353.8944a99.396267 99.396267 0 0 1 99.396266 99.396267V793.941333A99.396267 99.396267 0 0 1 911.5648 895.351467zM348.910933 312.32a42.257067 42.257067 0 0 0-42.257066-42.257067h-34.816A42.257067 42.257067 0 0 0 229.649067 312.32V722.875733c0 23.3472 18.909867 42.257067 42.257066 42.257067h34.816c23.313067 0 42.222933-18.909867 42.222934-42.257067V312.32z m212.718934-11.946667a30.3104 30.3104 0 0 0-30.3104-30.3104h-35.771734a30.3104 30.3104 0 0 0-30.344533 30.3104v253.986134c0 16.759467 13.585067 30.344533 30.344533 30.344533h35.771734a30.3104 30.3104 0 0 0 30.3104-30.344533v-253.952z m223.675733 5.461334c0-18.909867-15.36-34.269867-34.269867-34.269867h-27.8528c-18.944 0-34.304 15.36-34.304 34.269867V638.8736c0 18.944 15.36 34.304 34.304 34.304h27.8528c18.909867 0 34.269867-15.36 34.269867-34.304v-333.038933z"  horiz-adv-x="1024" />

    
    <glyph glyph-name="shuangsechangyongtubiao-" unicode="&#59352;" d="M776 719c17.3 0 32-14.7 32-32v-608c0-17.3-14.7-32-32-32H248c-17.3 0-32 14.7-32 32V687c0 17.3 14.7 32 32 32h528m0 64H248c-52.8 0-96-43.2-96-96v-608c0-52.8 43.2-96 96-96h528c52.8 0 96 43.2 96 96V687c0 52.8-43.2 96-96 96zM472 575v-112H360V575h112m32 64H328c-17.6 0-32-14.4-32-32v-176c0-17.6 14.4-32 32-32h176c17.6 0 32 14.4 32 32V607c0 17.6-14.4 32-32 32zM696 327H328c-17.6 0-32-14.4-32-32s14.4-32 32-32h368c17.6 0 32 14.4 32 32s-14.4 32-32 32zM696 191H328c-17.6 0-32-14.4-32-32s14.4-32 32-32h368c17.6 0 32 14.4 32 32s-14.4 32-32 32z"  horiz-adv-x="1024" />

    
    <glyph glyph-name="xiangmu1" unicode="&#59353;" d="M492.9 353.5c11.6-5.9 33.3-5.9 44.9 0l342.7 189.4-349.3 189.3c-11.6 5.9-33.3 5.9-44.9 0L144.4 542.8l348.5-189.3z m22.5-48.4c-15 0-29.9 3.4-42.4 10.2l-351 191c-15.8 8.5-24.9 22.1-24.9 37.4 0 15.3 9.1 28 24.1 36.5l344.3 191.1c24.1 13.6 60.7 13.6 84.8 0l351-191.1c15.8-8.5 25-22.1 25-37.4 0-15.3-9.2-28-24.1-36.5l-344.4-191c-12.5-6.8-27.5-10.2-42.4-10.2z m0 0M514.7 146.3c-14.8 0-29.6 3.5-41.9 10.4L125.9 350.8c-10.7 6-14 19-9 30.2 5.8 11.2 18.1 14.7 28.8 9.5l346.9-194.2c11.5-6 32.9-6 44.4 0l340.3 194.2c10.7 6 23 1.7 28.8-8.6 5.8-11.2 1.6-24.2-8.2-30.2L557.5 157.5c-13.2-7.8-28-11.2-42.8-11.2z m0 0M514.7-12.5c-14.8 0-29.6 3.4-41.9 10.4L125.9 192c-10.7 6-14 19-9 30.2 5.8 11.2 18.1 14.7 28.8 9.5l346.9-194.2c11.5-6 32.9-6 44.4 0l340.3 194.2c10.7 6 23 1.7 28.8-8.6 5.8-10.4 1.6-24.2-8.2-30.2L557.5-1.3c-13.2-7.8-28-11.2-42.8-11.2z m0 0"  horiz-adv-x="1024" />

    
    <glyph glyph-name="jiaoyu" unicode="&#59351;" d="M736.6 298l5.4-198.6v-0.6c0.2-5.4 0.8-21.7-21.3-44.4-19.6-20.3-47.9-37-84.3-49.6-37.9-13.2-79.9-20-124.9-20-44.8 0-86.8 6.7-124.8 19.9-36.2 12.8-64.7 29.5-84.5 49.8-19.7 20.3-21.6 35-21.2 44.2v0.6l5.4 198.6h34.9l155-73.5c10.5-5.2 22.3-7.8 35-7.8s24.5 2.6 35 7.8L701.5 298h35.1m37.6 46h-80.1l-162.4-77c-6.2-3.1-13-4.4-20.2-4.4-7.3 0-14.1 1.3-20.2 4.4L329 344h-80.1l-6.6-243.1c-1.1-29.1 10.3-56.1 34.5-81 24.2-24.8 57.1-44.4 98.9-59.1 41.8-14.6 87-21.8 135.9-21.8 48.8 0 94.2 7.3 135.9 21.8 41.8 14.6 74.6 34 98.9 59.1 24.2 24.7 35.6 51.9 34.5 81L774.2 344zM511.4 781.1l431.5-194.6-35.5-15.7-58.6-26 0.3-0.3-0.9-0.4-336.6-152.7L79.7 586.3l431.7 194.8M953 303.5l4.9-4.1c6.3-5.2 12.1-12.7 12.1-32.4 0-18.9-5.4-26.5-10.7-31.4l-6.6-6.1-6.6 6.2c-5.3 4.9-10.7 12.5-10.7 31.4 0 19.5 5.5 26.6 10.8 30.9l6.8 5.5m-0.2-182.9l14.7-135.7h-29.2l14.5 135.7M511.4 829c-1.8 0-3.2-0.2-4.4-0.7L14.2 605.9c-6.5-3.5-9.6-10-9.6-19.7 0-9.6 3.2-16.2 9.6-19.7l493-222.4c1.1-0.5 2.7-0.7 4.4-0.7 1.8 0 3.2 0.2 4.4 0.7l346 157c46.1-34.2 67.8-121.1 62.2-165.2-18.5-15.1-27.6-38.2-27.6-68.8 0-29.1 8.5-51.7 25.5-67.5l-25.5-238c-0.6-5.8 0.6-11.1 3.5-15.7 2.7-4.5 6.2-6.9 10.5-6.9H995c4.4 0 8 2.4 10.5 6.9 2.9 4.6 4.1 9.8 3.6 15.7l-25.7 238c17.1 16 25.5 38.8 25.5 67.5 0 30.8-9.5 54.2-28.7 70.1-3.2 87.3-24.8 152.3-59.2 190.5l87.8 38.9c6.5 3.5 9.6 9.8 9.6 19.7 0 9.6-3.2 16.2-9.6 19.7l-493 222.4c-1.1 0.4-2.6 0.6-4.4 0.6z"  horiz-adv-x="1024" />

    
    <glyph glyph-name="daoru2" unicode="&#59356;" d="M823.067823 321.29991700000005v-311.371897H138.04965V697.865305h311.371897v62.274379H75.77527v-812.486043h809.566932V321.29991700000005h-62.274379z m0 0M948.22473 794.439245c0 8.878964-0.243259 17.636299-0.729778 26.272003h-62.396009c0.608148-8.635705 0.851408-17.39304 0.851407-26.272003 0-206.405511-167.240765-373.646276-373.646276-373.646277-9.487112 0-18.730966 0.364889-27.974819 1.094667l120.291721 195.215584-53.030526 32.718375-130.751871-212.243734-32.718375-53.030527 53.030526-32.718375 212.000476-130.630241 32.718375 53.030526-138.901057 85.627272c224.528329 17.757928 401.256206 205.554104 401.256206 434.58273z m0 0"  horiz-adv-x="1024" />

    
    <glyph glyph-name="daochu1" unicode="&#59354;" d="M646.79400658 754.78857422h202.24291993c9.31915307 0 17.25897193-3.29754663 23.82934547-9.9865725 6.6049807-6.49127173 9.90252662-14.42120385 9.90252661-23.79473829V518.81872559c0-9.37353516-3.29754663-17.30346656-9.89758253-23.89855981-6.57531762-6.59014916-14.51513648-9.88769508-23.83428955-9.88769508-9.31420898 0-17.25402856 3.29754663-23.82934618 9.88769508-6.60992408 6.59509253-9.89263916 14.52502465-9.89263916 23.8985598V639.63647461L535.62170386 360.00256347000004c-6.47644019-6.49127173-14.37670922-9.78881836-23.70080566-9.78881836-9.66027856 0-17.6841433 3.1986692-24.10125733 9.58117677-6.41711402 6.49127173-9.60095239 14.52502465-9.60095166 24.10125732 0 9.37353516 3.22833228 17.20458984 9.7245481 23.794739l279.69818138 279.63391114h-120.87707519c-9.31420898 0-17.23425293 3.29754663-23.84912109 9.88769507-6.56048608 6.59509253-9.87780761 14.52502465-9.87780762 23.79473901 0 9.37353516 3.31732154 17.30346656 9.87780762 23.89361572 6.61486816 6.59014916 14.53491211 9.88769508 23.844177 9.88769508h0.03460717z m-404.50561546 0h235.95501708c9.3092649 0 17.22930884-3.29754663 23.84417701-9.9865725 6.57037354-6.49127173 9.87780761-14.42120385 9.87780761-23.79473829 0-9.26971435-3.31237817-17.20458984-9.87780761-23.79473902-6.61486816-6.59014916-14.53491211-9.88769508-23.84417701-9.88769507H242.28839112c-9.30432153 0-17.25402856-3.29260253-23.81451393-9.88769579-6.62475562-6.59014916-9.89758325-14.52008057-9.89758324-23.89361572v-539.29467726c0-9.26971435 3.27282691-17.19964576 9.89758324-23.78979492 6.56048608-6.59014916 14.51019311-9.88769508 23.81451393-9.88769579h539.32434105c9.3092649 0 17.22930884 3.29754663 23.844177 9.88769579 6.57037354 6.59014916 9.87780761 14.52502465 9.87780763 23.79473829V350.21374512c0 9.26971435 3.31237817 17.19964576 9.87780761 23.78979492 6.60992408 6.59509253 14.53985619 9.88769508 23.85406519 9.88769507 9.3092649 0 17.22930884-3.29260253 23.844177-9.88769507 6.56048608-6.59014916 9.87780761-14.52008057 9.87780762-23.78979492v-235.96984864c0-27.90801978-9.87780761-51.70275879-29.62353539-71.47814965-19.75561523-19.77539086-43.59979224-29.55926513-71.48803711-29.55926513H242.33288574c-27.92285133 0-51.72747779 9.78881836-71.4929812 29.56420922-19.75561523 19.77539086-29.63342286 43.56518578-29.63342284 71.47814965V653.5385744499999c0 27.91296386 9.87780761 51.70275879 29.63342284 71.47814894 19.76550269 19.77539086 43.57012915 29.66308594 71.4929812 29.66308594L242.28839112 754.78857422z"  horiz-adv-x="1024" />

    
    <glyph glyph-name="shuju" unicode="&#58924;" d="M46.878 778.746v-626.837H464v-67.791l-289.635-90.656h711.272L592 84.118v67.791h392.146V778.746H46.878zM936 201H94V732h842v-531zM294.301 463.105h59.198v-163.112h-59.198zM423.301 517.479h62.207v-217.484h-62.207zM554.301 548.542h63.261v-248.549h-63.261zM683.301 587.383h66.278v-287.39h-66.278z"  horiz-adv-x="1024" />

    
    <glyph glyph-name="shuju1" unicode="&#58940;" d="M992.635 414.105v0.005c0 248.534-201.476 450.015-450.016 450.015v-450.02h450.016zM491.202 354.105V804.119c-248.539 0-450.026-201.475-450.026-450.009v-0.005c0-248.534 201.487-450.016 450.026-450.016 248.527 0 450.003 201.48 450.003 450.016H491.202z"  horiz-adv-x="1024" />

    
    <glyph glyph-name="shuju2" unicode="&#59301;" d="M41.037-63.973V821.925h53.037v-832.856h885.918v-53.042zM194.881 302.06h113.172v-261.708H194.881zM392.931 386.937h113.171v-346.586H392.931zM590.979 563.761h113.173v-523.41H590.979zM789.029 691.076h113.173V40.35H789.029z"  horiz-adv-x="1024" />

    
    <glyph glyph-name="shuju3" unicode="&#59303;" d="M44.184-53.684V825.29h52.623v-826.346h878.998v-52.628zM917.785 338.502l-9.941-110.145-110.117 9.94c-14.442 1.315-27.231-9.346-28.526-23.789-1.315-14.442 9.354-27.206 23.787-28.521l136.292-12.301c14.454-1.295 27.2 9.346 28.517 23.81l12.295 136.286c1.315 14.443-9.335 27.207-23.789 28.521a26.085 26.085 0 0 1-2.362 0.107c-13.47 0.003-24.933-10.266-26.156-23.908zM443.272 374.896l21.352-19.525 20.961 15.05-26.45 18.987zM629.813 409.306l52.509-37.698 40.885 51.426-26.986 33.945zM211.922 586.507h0.021a26.266 26.266 0 0 1-17.733 6.877c-7.114 0-14.207-2.874-19.378-8.538-9.787-10.722-9.067-27.323 1.645-37.109L318.649 417.7l38.919 35.589-145.646 133.218zM464.624 355.371l-21.352 19.525-38.919-35.591 56.272-51.468 69.997 50.255-45.037 32.329zM696.221 456.979l26.986-33.945 33.553 42.2-50.535 63.566-121.438-87.169 45.026-32.325zM889.453 213.915c9.026-11.359 25.546-13.23 36.905-4.206 11.35 9.021 13.22 25.541 4.215 36.895l-99.91 125.674-33.555-42.198 92.345-116.165zM166.937 200.54c-9.787 10.722-9.067 27.324 1.645 37.111L452.73 497.549l235.596-169.142 193.231 243.064c9.025 11.359 25.547 13.23 36.905 4.204 11.349-9.02 13.22-25.54 4.214-36.894L698.329 256.586l-241.6 173.429L204.027 198.88h0.021a26.272 26.272 0 0 0-17.733-6.878c-7.114 0-14.207 2.874-19.378 8.538zM909.89 446.884l-9.939 110.146-110.118-9.94c-14.443-1.315-27.232 9.344-28.527 23.788-1.314 14.443 9.354 27.206 23.787 28.521l136.292 12.3c14.454 1.295 27.201-9.345 28.518-23.809l12.295-136.287c1.315-14.442-9.333-27.205-23.787-28.521-0.792-0.072-1.583-0.107-2.364-0.107-13.472-0.002-24.934 10.268-26.157 23.909z"  horiz-adv-x="1024" />

    
    <glyph glyph-name="shuju4" unicode="&#59304;" d="M172.66 678.725v-0.006c-167.956-167.955-167.956-440.268 0-608.222l304.116 304.116L172.66 678.725zM508.57 423.916l-87.283-174.29L552.07 380.41zM400.427 782.837l-83.688-167.1 63.944-63.938L509.137 808.313c-36.969-3.691-73.512-12.237-108.71-25.476zM509.137 808.313L380.683 551.799l63.934-63.938L604.531 807.174c-31.662 3.868-63.66 4.304-95.394 1.139zM604.531 807.174L444.617 487.859l63.954-63.943 182.11 363.645c-28.099 9.538-56.978 16.043-86.15 19.613zM247.955 76.299c19.106-19.111 39.632-35.937 61.138-50.699l112.193 224.026-173.331-173.327zM261.817 697.68l-12.984-12.347 67.905-69.596 83.688 167.1c-49.948-18.788-97.114-47.13-138.609-85.157zM856.186 76.289v0.005c91.334 91.334 132.882 213.526 124.882 333.025L785.762 19.332c24.929 16.165 48.574 35.105 70.424 56.957zM900.75 632.187l-341.389-681.69a431.781 431.781 0 0 1 103.131 14.293l288.602 576.3c-12.809 31.846-29.608 62.451-50.344 91.097zM690.682 787.561L508.57 423.916l43.5-43.506-130.783-130.784L309.093 25.6a426.669 426.669 0 0 1 75.306-41.241L768.801 751.96c-25.02 14.615-51.205 26.462-78.119 35.601zM981.066 409.319c-3.009 44.901-12.941 89.415-29.974 131.771l-288.6-576.301c43.084 11.402 84.74 29.552 123.27 54.543l195.304 389.987zM768.801 751.959L384.399-15.643c26.945-11.402 54.791-19.979 83.131-25.635l371.554 741.953a429.27 429.27 0 0 1-70.283 51.284zM856.176 684.526c-5.58 5.579-11.289 10.941-17.092 16.15L467.53-41.276c30.275-6.04 61.079-8.742 91.831-8.228l341.389 681.69c-13.266 18.313-28.08 35.845-44.574 52.34z"  horiz-adv-x="1024" />

    
    <glyph glyph-name="shuju5" unicode="&#59308;" d="M988.588 81.753c0 14.259-10.946 25.825-24.874 27.107V829.72H64.35v-274.486c-12.456-2.563-21.828-13.587-21.828-26.796 0-13.21 9.372-24.231 21.828-26.797V-69.66h899.364V54.646c13.928 1.283 24.874 12.85 24.874 27.107z m-174.005 2.497V228.631h92.742l40.83-122.995c-7.771-4.271-13.169-12.131-14.016-21.386H814.583z m144.149 442.216v-143.955h-92.023l-40.879 123.13c7.581 4.196 12.892 11.811 13.897 20.824l119.005 0.001z m-90.373-148.927h90.373v-143.945h-42.59l-47.783 143.945z m37.315-143.945h-91.091V377.539h43.307l47.784-143.945z m53.058-4.963v-119.78c-0.38-0.028-0.77-0.066-1.139-0.115l-39.8 119.896h40.939v-0.001zM816.404 502.516l39.834-120.004h-41.655V502.331c0.612 0.049 1.22 0.106 1.821 0.185z m-1.821 322.231h144.149v-143.954H814.583V824.747zM958.732 675.82v-144.382H839.835a27.194 27.194 0 0 1-25.252 25.214V675.82h144.149zM665.652 824.747h143.954v-143.954H665.652V824.747z m0-148.927h143.954v-119.285c-12.986-1.477-23.131-11.946-24.072-25.098H665.652V675.82z m0-149.354H785.64c0.866-7.75 4.896-14.51 10.858-18.919l-60.807-125.035h-70.039V526.466z m67.62-148.927l-57.769-118.8c-3.026 1.428-6.347 2.264-9.853 2.485V377.539h67.622zM660.688 675.82v-144.382H571.96l-40.854 126.628c5.376 4.322 9.042 10.567 9.97 17.754h119.612z m-1.451-414.886l-37.621 116.605h39.072v-116.46c-0.481-0.058-0.975-0.067-1.451-0.145zM573.57 526.466h87.118v-143.955h-40.676L573.57 526.466z m35.993-143.954h-93.048V526.466h46.618l46.43-143.954z m-87.356 270.824l39.32-121.898h-45.012V652.21a27.45 27.45 0 0 1 5.692 1.126z m-5.69-275.797h94.654l38.741-120.102c-7.968-4.778-13.354-13.423-13.354-23.388 0-0.155 0.045-0.301 0.049-0.457H516.516l0.001 143.947zM660.688 824.747v-143.954H541.281c-0.737 13.578-11.314 24.417-24.766 25.631V824.747h144.173z m-293.313 0h144.179v-118.333c-13.403-1.253-23.937-12.072-24.67-25.621H367.375V824.747z m0-148.927h119.713c1-7.731 5.133-14.452 11.193-18.764L435.06 531.437h-67.685V675.82z m65.179-149.354L371.833 405.81a27.104 27.104 0 0 1-4.458 0.886v119.77h65.179zM218.462 824.747h143.935v-143.954H218.462V824.747z m0-148.927h143.935v-144.382H218.462V675.82z m0-149.354h143.935v-119.645c-13.262-0.903-23.828-11.18-25.208-24.311H218.462V526.466z m118.655-148.927c0.394-5.011 2.04-9.654 4.773-13.561L232.754 252.796c-4.055 3.011-8.95 4.874-14.292 5.243v119.5h118.655zM69.308 233.594V377.539H136.9l60.954-126.764c-4.681-4.409-7.721-10.433-8.396-17.183l-120.15 0.002z m27.713 292.872H213.48v-143.955h-67.932L85.974 506.43c6.279 4.604 10.451 11.799 11.047 20.036z m116.46-148.927v-119.605c-2.516-0.281-4.949-0.807-7.212-1.721l-58.327 121.326h65.539zM69.308 824.747h144.173v-143.954H69.308V824.747z m0-148.927h144.173v-144.382H96.92c-1.515 13.676-12.976 24.35-27.049 24.35-0.194 0-0.369-0.048-0.563-0.06V675.82z m0.563-174.733c2.477 0 4.832 0.438 7.119 1.06l57.516-119.635H69.308V501.146c0.194-0.009 0.369-0.059 0.563-0.059z m143.61-565.765H69.308V79.277h144.173v-143.955zM69.308 84.25V228.631h120.106a27.185 27.185 0 0 1 24.067-24.786V84.25H69.308z m293.089-148.928H218.462V79.277h143.935v-143.955z m0 148.928H218.462V203.729c13.427 0.95 24.082 11.521 25.194 24.901h118.741v-144.38zM243.613 233.594c-0.438 4.361-1.811 8.44-4.055 11.956l109.397 111.438c3.881-2.622 8.499-4.157 13.442-4.486v-118.908H243.613z m267.941-298.272H367.375V79.277h144.179v-143.955z m0 148.928H367.375V228.631h144.179V84.25z m0 149.344H367.375V352.628a27.176 27.176 0 0 1 24.013 24.911h120.166v-143.945z m0 148.918H391.316c-0.811 7.692-4.74 14.403-10.586 18.842l62.964 125.112h67.859v-143.954h0.001zM446.2 531.437l61.133 121.472c1.37-0.35 2.777-0.554 4.221-0.69v-120.781H446.2z m214.488-596.115H516.517V79.277H660.69l-0.002-143.955zM516.517 84.25V228.631h120.592c2.308-11.459 11.813-20.2 23.581-21.599V84.25H516.517z m293.089-148.928H665.652V79.277h143.954v-143.955z m0 148.928H665.652V206.877c12.444 0.806 22.652 9.808 25.056 21.754h118.898V84.25z m0 149.344H691.209c0.005 0.156 0.049 0.303 0.049 0.457 0 7.305-2.903 13.908-7.569 18.803l60.627 124.687h65.292l-0.002-143.947z m-62.873 148.918l58.711 120.724c1.349-0.369 2.733-0.622 4.162-0.777v-119.945l-62.873-0.002z m67.85-447.19V79.277h119.558a27.178 27.178 0 0 1 24.593-24.621v-119.334H814.583z"  horiz-adv-x="1024" />

    
    <glyph glyph-name="shuju6" unicode="&#59309;" d="M940.17 74.857H48.029M907.212 103.593l76.285-28.727-76.285-28.736zM141.645 720.71v-732.263M112.909 687.751l28.728 76.286 28.737-76.286zM215.487 391.543h80.354v-20.087h-80.354zM245.62 421.672h20.087v-80.35H245.62zM353.585 544.708h80.354v-20.086h-80.354zM383.719 574.837h20.086v-80.349h-20.086zM491.683 268.507h80.354v-20.086h-80.354zM521.816 298.637h20.086v-80.35h-20.086zM629.781 481.931h80.353v-20.086h-80.353zM659.915 512.061h20.086v-80.349h-20.086zM767.88 507.045h80.354v-20.086H767.88zM798.014 537.174H818.1v-80.349h-20.086z"  horiz-adv-x="1024" />

    
    <glyph glyph-name="shuju7" unicode="&#59310;" d="M895.125 332.307c-6.34-45.54-21.771-94.47-42.674-133.401-8.986-16.735-19.142-32.724-30.428-47.845A384.399 384.399 0 0 0 727.9 61.6c-15.646-10.479-32.127-19.811-49.279-27.931-38.375-18.142-84.57-32.204-128.658-36.669v-91.115c63.717 4.59 123.937 21.72 178.226 48.972a472.479 472.479 0 0 1 43.702 24.967 477.435 477.435 0 0 1 133.584 128.805c9.566 13.752 18.48 27.998 26.591 42.769 29.985 54.661 49.534 115.852 55.952 180.911l-92.893-0.002zM369.021 26.173c-17.583 7.292-34.513 15.83-50.641 25.555-39.631 23.866-74.507 54.751-103.063 90.878a382.684 382.684 0 0 0-31.819 47.052c-23.699 41.342-39.911 87.513-46.744 136.704-2.414 17.363-3.757 35.071-3.757 53.105 0 1.187 0.084 2.359 0.093 3.539 0.485 52.487 11.514 102.438 31.11 147.845a380.543 380.543 0 0 0 26.309 50.227C218.151 625.537 260.097 667.704 303 697.5l-48.95 78.599c-58.53-38.638-108.039-89.803-144.577-149.779-8.723-14.297-16.641-29.12-23.839-44.357-28.57-60.534-44.73-128.056-45.194-199.325-0.008-1.057-0.075-2.092-0.075-3.145 0-15.924 0.82-31.666 2.344-47.187 6.743-68.342 28.055-132.362 60.659-189.096 8.391-14.604 17.511-28.734 27.368-42.303 37.947-52.301 86.247-96.568 141.968-129.742 14.388-8.572 29.29-16.352 44.614-23.398 55.796-25.639 117.391-40.756 182.316-42.877V-5.5c-45.402 2.068-90.693 15.116-130.613 31.673zM549.963-94.115c-11.438-0.828-22.953-1.391-34.599-1.391-5.276 0-10.495 0.231-15.73 0.396M948.932 572.98a473.243 473.243 0 0 1-23.002 44.833c-34.203 58.729-80.623 109.414-135.813 148.644a473.253 473.253 0 0 1-42.527 26.987c-59.209 33.27-126.246 54.169-197.682 59.317-11.438 0.828-22.953 1.391-34.6 1.391-5.275 0-10.494-0.224-15.729-0.397-72.72-2.369-141.264-21.06-202.155-52.562l47.411-80.196c45.988 22.706 98.629 37.576 152.775 40.046 5.863 0.271 11.766 0.447 17.704 0.447 13.152 0 26.141-0.666 38.939-1.957 52.711-5.337 102.215-21.419 146.388-45.952 16.604-9.224 32.434-19.661 47.413-31.166a384.08 384.08 0 0 0 97.572-110.787c9.529-16.287 17.845-33.333 24.912-51.037 17.021-42.734 26.604-89.224 27.045-137.925l92.64-0.369c-0.438 67.907-15.184 132.38-41.291 190.683zM624.598 555.774L411.417 235.748M430.361 506.024m-50.893 0a50.893 50.893 0 1 1 101.786 0 50.893 50.893 0 1 1-101.786 0ZM656.553 285.488c0-28.104-22.787-50.888-50.893-50.888s-50.892 22.783-50.892 50.888c0 28.106 22.785 50.893 50.892 50.893 28.106 0 50.893-22.785 50.893-50.893z"  horiz-adv-x="1024" />

    
    <glyph glyph-name="shuju8" unicode="&#59312;" d="M1003.343-88.717H62.153V799.292h53.164v-834.835h888.026M967.886 19.407H188.001v326.14l184.344 155.97L563.772 288.82l205.609 418.311 198.505-205.614zM834.431 750.75l-89.42 92.556-56.758-115.488-146.686-298.399-102.059 113.38L380.856 608l-66.909-56.674-126.009-106.598v-50.463l160.343 135.677 27.564 23.326 24.162-26.847 154.615-171.808 181.353 368.948 23.368 47.566 36.843-38.136L967.99 555.034v49.773z"  horiz-adv-x="1024" />

    
    <glyph glyph-name="shuju9" unicode="&#59313;" d="M65.854 724.042h67.28v-776.344h-67.28zM153.841 536.789h67.279v-589.091h-67.279zM241.827 700.222h67.284v-752.524h-67.284zM394.25 166.026h67.284v-218.329H394.25zM482.241 805.786h67.283v-858.089h-67.283zM570.229 700.222h67.281v-752.524h-67.281zM722.654 700.711h67.278v-753.014h-67.278zM810.641 528.695h67.283v-580.998h-67.283zM898.631 408.001h67.279v-460.304h-67.279z"  horiz-adv-x="1024" />

    
    <glyph glyph-name="shuju10" unicode="&#59318;" d="M914.771 84.39H77.63M883.841 111.354l71.584-26.956-71.584-26.965zM165.475 690.423v-687.116M138.51 659.497l26.958 71.582 26.964-71.582zM221.088 106.659v0.014h-0.007l0.007-0.014zM717.11 681.318l-47.225-125.386h33.123c-27.044-191.33-109.424-296.849-198.09-356.197-97.477-65.123-203.935-73.985-253.505-73.957-18.013 0-28.122 1.157-28.144 1.121l-2.183-20.227c0.586-0.072 11.698-1.229 30.327-1.229 51.848 0.027 162.188 8.973 264.808 77.376 93.934 62.515 180.152 175.366 207.352 373.112h40.764L717.11 681.318z"  horiz-adv-x="1024" />

    
    <glyph glyph-name="shuju11" unicode="&#59319;" d="M78.539-24.09V779.006h48.071V24h803.116v-48.09zM878.827 380.849c-2.573 0-5.024-0.449-7.393-1.089L701.149 625.73c2.705 4.376 4.349 9.486 4.349 15.019 0 15.826-12.829 28.647-28.655 28.647-15.816 0-28.647-12.821-28.647-28.647 0-8.669 3.927-16.343 10.013-21.603l-111.17-325.338c-1.578 0.273-3.186 0.489-4.848 0.489-5.109 0-9.844-1.446-13.994-3.795L401.191 419.903c1.831 3.785 2.949 7.974 2.949 12.454 0 15.826-12.83 28.646-28.646 28.646-15.826 0-28.657-12.821-28.657-28.646 0-7.346 2.845-13.967 7.373-19.038L234.662 192.792c-1.653 0.292-3.316 0.507-5.044 0.507-15.827 0-28.657-12.82-28.657-28.646 0-15.836 12.83-28.656 28.657-28.656 15.826 0 28.656 12.82 28.656 28.656 0 7.101-2.686 13.507-6.959 18.513l119.819 220.978c1.428-0.225 2.856-0.44 4.359-0.44 4.282 0 8.321 1.015 11.985 2.705l128.048-130.481c-1.23-3.191-1.982-6.641-1.982-10.274 0-15.835 12.83-28.656 28.646-28.656 15.826 0 28.656 12.821 28.656 28.656 0 7.025-2.62 13.365-6.81 18.344l112.118 328.165c0.233 0 0.46-0.066 0.687-0.066 3.249 0 6.319 0.657 9.224 1.653L855.6 368.864c-3.382-4.696-5.429-10.427-5.429-16.662 0-15.837 12.83-28.657 28.656-28.657 15.827 0 28.657 12.82 28.657 28.657 0 15.826-12.83 28.647-28.657 28.647z"  horiz-adv-x="1024" />

    
    <glyph glyph-name="shuju12" unicode="&#59320;" d="M981.459 241.858V390.307h-99.457v71.257H519.797v71.248h112.816V749.54H395.11v-216.728h112.801v-71.248H145.706v-71.257H46.265v-148.449h99.449v-86.09H46.265v-148.451h237.51V155.768H157.592v86.09h126.183V390.307H157.592v59.387h350.319v-59.387H395.11v-148.449h112.809v-86.09H395.11v-148.451h237.503V155.768H519.797v86.09h112.816V390.307H519.797v59.387h350.317v-59.387H743.948v-148.449h126.166v-86.09H743.948v-148.451h237.511V155.768H882.01v86.09z"  horiz-adv-x="1024" />

    
    <glyph glyph-name="shuju13" unicode="&#59321;" d="M63.247-46.279V814.956h51.571v-809.674h861.266v-51.561zM178.437 771.986h623.17v-110.022h-623.17zM178.437 579.449H688.15v-110.022H178.437zM178.437 386.912H904.75v-110.023H178.437zM178.437 194.375h632.618v-110.023H178.437z"  horiz-adv-x="1024" />

    
    <glyph glyph-name="shuju14" unicode="&#59323;" d="M513.457 830.813L43.1 489.087 222.771-63.87h4.715l1.938-1.27 0.822 1.27h573.908l179.672 552.957L513.457 830.813z m-148.33-711.787a18.399 18.399 0 0 1-7.639 11.924l155.987 239.3 160.539-243.365c-1.965-2.221-3.407-4.889-4.122-7.867l-304.765 0.008zM774.238 442.25l-257.035-60.433-0.301 248.418c2.915 0.548 5.546 1.827 7.803 3.582L776.55 451.333c-1.442-2.623-2.339-5.602-2.339-8.809 0-0.091 0.027-0.182 0.027-0.274z m-520.766-0.247c-0.128 1.919-0.512 3.755-1.17 5.464l248.072 187.895a18.376 18.376 0 0 1 9.054-4.998l0.304-248.547-256.26 60.186z m255.956 224.289c-8.23-1.846-14.398-9.183-14.398-17.964 0-2.348 0.483-4.577 1.288-6.651L248.237 453.764a18.364 18.364 0 0 1-13.075 5.455c-6.789 0-12.646-3.71-15.853-9.174L77.848 483.458 509.73 797.253l-0.302-130.961zM252.43 434.529l254.979-59.875-156.957-240.761c-1.114 0.211-2.256 0.349-3.435 0.349-1.683 0-3.29-0.302-4.843-0.722l-95.52 292.951c2.596 2.101 4.616 4.861 5.776 8.058z m435.354-301.35c-2.787 0-5.409-0.665-7.776-1.78L519.543 374.645l256.351 60.287c1.697-3.736 4.623-6.761 8.24-8.662l-95.089-293.218c-0.42 0.027-0.832 0.127-1.261 0.127z m104.865 327.784c-4.248 0-8.113-1.498-11.239-3.92L529.575 639.529c1.435 2.623 2.329 5.592 2.329 8.798 0 8.991-6.469 16.475-15.002 18.092l0.301 130.815 431.9-313.794-139.889-32.958c-2.978 6.178-9.245 10.481-16.565 10.481zM73.361 476.788l143.58-33.907c-0.092-0.695-0.219-1.38-0.219-2.102 0-10.169 8.259-18.438 18.438-18.438 1.681 0 3.28 0.301 4.824 0.722l95.52-292.961c-4.186-3.382-6.927-8.498-6.927-14.301 0-3.874 1.207-7.465 3.253-10.435l-92.01-140.839L73.361 476.788zM337.387 100.14c2.814-1.727 6.085-2.775 9.631-2.775 8.706 0 15.952 6.065 17.89 14.18l304.757-0.009c1.526-8.635 9.037-15.231 18.12-15.231 1.991 0 3.882 0.401 5.673 0.986l88.932-136.179H246.546l90.841 139.028z m450.402-133.583l-87.808 134.461c3.801 3.381 6.239 8.251 6.239 13.725 0 7.091-4.065 13.192-9.95 16.271l95.08 293.2c0.439-0.027 0.852-0.128 1.299-0.128 10.179 0 18.438 8.271 18.438 18.439 0 0.228-0.063 0.447-0.074 0.676l142.55 33.597-165.774-510.241z"  horiz-adv-x="1024" />

    
    <glyph glyph-name="shuju15" unicode="&#59327;" d="M918.887 730.005H762.666c-18.194 0-33.089-14.879-33.089-33.081v-75.354h222.391v75.354c0 18.202-14.879 33.081-33.081 33.081zM804.508 606.496h72.529v-383.369h-72.529zM729.577 606.496h57.031v-383.369h-57.031zM894.937 606.496h57.031v-383.369h-57.031zM840.776 37.405l30.664 46.926h-61.328zM951.182 206.354H730.378l74.779-114.448h71.239zM67.62 591.987l13.52 18.844L852.649 57.45l-13.519-18.866zM50.219 621.375l100.889 13.821 3.149-22.968-77.899-10.68 10.673-77.921h0.014l-22.99-3.149z"  horiz-adv-x="1024" />

    
    <glyph glyph-name="shuju16" unicode="&#59328;" d="M30.969 514.353l162.248 126.891h35.137v-9.868 9.868h9.849v-83.702L30.969 395.477V514.353z m19.756-9.603v-68.78l167.77 131.212v54.33h-18.474L50.725 504.75zM30.988 420.523l191.285 149.613 15.93 12.476V463.73L30.988 301.666V420.523z m19.718-9.623v-68.761l167.789 131.212v68.774L50.706 410.9zM30.988 631.385v9.864H225.27L30.988 489.317V631.385z m19.728-101.579l117.262 91.715H50.716v-91.715z m-9.859 91.715v9.864-9.864zM30.988 326.703l191.275 149.613 15.959 12.475v-118.906L30.988 207.83V326.703z m19.728-9.648v-68.729l167.77 131.207v68.758L50.716 317.055zM30.988 45.215L222.263 194.82l15.959 12.479v-118.901L30.988-73.666V45.215z m19.728-9.627v-68.777l167.77 131.216v68.77L50.716 35.588zM130.856-64.328l107.366 83.969v-83.967l-107.366-0.002z m97.498 9.859v9.867-9.867z m-40.225 9.867h30.356v23.745l-30.356-23.745zM30.988-64.318v15.689l207.215 162.064v-118.853l-75.265-58.902-131.95 0.002z m125.108 19.736l62.399 48.783v68.76L68.207-44.582h87.889zM30.988 139.031l191.285 149.615 15.93 12.469v-118.881L30.988 20.15V139.031z m19.718-9.627v-68.75l167.789 131.207V260.64L50.706 129.404zM30.988 232.867l191.275 149.618 15.959 12.476v-118.9L30.988 113.996V232.867z m19.728-9.637v-68.761l167.77 131.207v68.789L50.716 223.23zM282.629 813.947v9.874h176.067L282.629 686.123V813.947z m19.718-87.339l99.058 77.467h-99.039l-0.019-77.467z m-9.849 77.467v9.873-9.873zM370.817-64.328l119.044 93.084v-93.084H370.817z m109.178 9.879V-44.6v-9.849z m-51.905 9.847h42.018v32.883l-42.018-32.883zM282.61 429.673l207.252 162.084V472.87L298.569 323.262l-6.071 7.769 6.071-7.769-15.959-12.451V429.673z m19.756-9.612v-68.756l167.741 131.18v68.793L302.366 420.061zM282.61 54.352l191.294 149.613 15.958 12.48v-118.892L282.61-64.549V54.352z m19.756-9.608v-68.799l167.741 131.217v68.77L302.366 44.744zM282.61 711.174L426.644 823.815h63.219v-69.444L282.61 592.268V711.174z m19.756-9.612v-68.774L470.107 763.98V804.079h-36.659L302.366 701.562zM282.61 242.012l207.252 162.09v-118.887L298.569 135.602l-6.071 7.767 6.071-7.767-15.959-12.452V242.012z m19.756-9.608v-68.771l167.741 131.199V363.62L302.366 232.404zM282.629-64.328v24.844l207.232 162.086v-118.883l-87.001-68.047H282.629z m113.418 19.726l74.061 57.928v68.779L308.119-44.602h87.928zM282.61 148.178l191.294 149.604 15.958 12.5v-118.91L282.61 29.285V148.178z m19.756-9.619v-68.768l167.761 131.217v68.771l-167.761-131.22zM282.61 523.514l207.252 162.084v-118.887L298.569 417.102l-6.071 7.769 6.071-7.769-15.959-12.475V523.514z m19.756-9.614v-68.779l167.741 131.227v68.75L302.366 513.9zM282.61 617.334l207.252 162.084v-118.886L298.569 510.917l-6.071 7.768 6.071-7.768-15.959-12.451V617.334z m19.756-9.613v-68.76l167.741 131.203v68.774L302.366 607.721zM282.629 335.848l207.232 162.07v-118.863L298.569 229.436l-6.071 7.769 6.071-7.769-15.939-12.448-0.001 118.86z m19.737-9.627v-68.76l167.741 131.207v68.77L302.366 326.221zM534.245 344.982l25.499 19.948h123.393v-9.858 9.858h28.622L534.245 226.12V344.982z m19.757-9.597v-68.77l100.494 78.6h-87.929l-12.565-9.83zM534.264 63.498l191.275 149.613 15.959 12.471v-118.9L534.264-55.355V63.498z m19.718-9.627v-68.762L721.76 116.336v68.77L553.982 53.871zM610.744-64.328L741.498 37.92V-64.328H610.744z m120.887 9.859v9.867-9.867z m-63.585 9.867h53.696v42.036l-53.696-42.036zM534.264-64.328V-30.32l207.234 162.084v-118.891l-98.721-77.203-108.513 0.002z m19.718 19.726h81.99l85.77 67.073V91.26l-167.76-131.207v-4.655zM534.264 355.072v9.869h57.533l-57.533-44.957v35.088z m9.869-2.359v2.359-2.359zM534.264 157.332l191.295 149.623 15.939 12.471v-118.899L534.264 38.471V157.332z m19.718-9.617v-68.779l167.76 131.218v68.76l-167.76-131.199zM534.264 251.168l142.783 111.684 2.697 2.101h61.754v-70.603L534.264 132.295V251.168z m19.718-9.607v-68.778l167.76 131.196v41.218H686.51L553.982 241.561z m129.155 103.634v9.869-9.869zM785.887 72.652L977.2 222.256l15.938 12.49v-118.891L785.887-46.199V72.652z m19.736-9.607v-68.77l167.779 131.196V194.26L805.623 63.045zM785.887 166.488L977.2 316.111l15.938 12.471v-118.893L785.887 47.586V166.488z m19.736-9.619v-68.771l167.779 131.197v68.799L805.623 156.869zM785.887-64.318V-21.18L977.2 128.423l15.938 12.49V22.03l-110.42-86.349h-96.831v0.001z m19.736 33.547v-13.811h70.312l97.469 76.211v68.787L805.623-30.771zM785.904 541.829L993.119 703.86v-118.833L801.845 435.402l-6.07 7.776 6.07-7.776-15.939-12.428-0.002 118.855z m19.739-9.638v-68.77l167.74 131.217v68.774l-167.74-131.221zM850.686-64.318L977.2 34.596l15.938 12.49v-111.404H850.686z m57.262 19.736h65.454V6.6l-65.454-51.182zM785.887 354.158l207.252 162.063V397.35L801.845 247.727l-6.07 7.777 6.07-7.777-15.958-12.469v118.9z m19.756-9.637v-68.761l167.761 131.202v68.774L805.643 344.521zM785.904 710.321v9.888h140.161L785.904 610.607v99.714z m19.739-59.238l63.121 49.39h-63.121v-49.39z m-9.87 49.389v9.849-9.849zM785.904 260.314l207.233 162.077v-118.866L801.845 153.902l-6.07 7.768 6.07-7.768-15.939-12.451-0.002 118.863z m19.719-9.609v-68.799l167.76 131.227v68.771l-167.76-131.199zM785.887 635.649l108.127 84.545h99.125v-41.342L785.887 516.777V635.649z m19.736-9.612v-68.774l167.779 131.192v12.008h-72.586l-95.193-74.426zM785.887 447.983l207.252 162.094v-118.91L801.845 341.553l-6.07 7.787 6.07-7.787-15.958-12.461V447.983z m19.756-9.612v-68.775l167.761 131.18v68.817L805.643 438.371z"  horiz-adv-x="1024" />

    
    <glyph glyph-name="shuju17" unicode="&#59329;" d="M235.936 395.928l214.557 371.623 214.554-371.623zM805.893 365.223L591.328-6.4 376.774 365.223zM81.887 569.758m-26.505 0a26.505 26.505 0 1 1 53.01 0 26.505 26.505 0 1 1-53.01 0ZM81.888 569.758h204.788M954.016 168.629m-26.504 0a26.504 26.504 0 1 1 53.008 0 26.504 26.504 0 1 1-53.008 0ZM954.016 168.629H749.228"  horiz-adv-x="1024" />

    
    <glyph glyph-name="shuju18" unicode="&#59330;" d="M530.589 299.961l-13.542 19.961-28.328 41.739c-7.519-27.39-22.017-51.839-41.595-71.454-29.398-29.344-69.625-47.387-114.424-47.398-44.805 0.013-85.032 18.056-114.436 47.398-25.077 25.131-41.858 58.188-46.221 95.234h26.021l-32.129 47.355-32.135 47.352-32.129-47.352-32.135-47.355h30.255c9.783-120.119 110.255-214.54 232.908-214.564 106.277 0.02 195.905 70.939 224.305 168.026l-12.873-18.981-13.542-19.961zM729.482 638.385c-122.646-0.024-223.115-94.444-232.91-214.563h-30.253l32.135-47.357 32.135-47.355 64.259 94.714h-26.021c4.362 37.047 21.145 70.107 46.221 95.232 29.404 29.338 69.631 47.38 114.437 47.398 44.793-0.019 85.031-18.062 114.43-47.398 29.332-29.397 47.375-69.631 47.393-114.43 0-1.201-0.064-2.391-0.09-3.592h71.968c0.024 1.194 0.055 2.391 0.055 3.592-0.034 129.112-104.651 233.735-233.759 233.759z"  horiz-adv-x="1024" />

    
    <glyph glyph-name="shuju19" unicode="&#59337;" d="M919.804 80.08H79.585M888.764 107.144l71.845-27.057-71.845-27.063zM167.753 688.344v-689.646M140.689 657.303l27.056 71.845 27.064-71.845zM763.583 326.917l-92.227 223.705-82.813-185.13-82.816 87.258-96.608-143.795-72.787 196.105-142.295-383.381h650.481V658.67z"  horiz-adv-x="1024" />

    
    <glyph glyph-name="shuju20" unicode="&#59338;" d="M310.142 386.544h78.662V237.82h-78.662zM447.797 434.78h78.662v-196.96h-78.662zM585.453 535.262h78.661v-297.441h-78.661zM723.109 471.947h78.661v-234.126h-78.661zM862.443 651.89h-702.79c-51.08 0-92.475-41.394-92.475-92.481V217.26c0-51.072 41.395-92.475 92.475-92.475h702.792c51.08 0 92.475 41.402 92.475 92.475V559.408c-0.002 51.088-41.397 92.482-92.477 92.482z m-16.181-448.499H261.373V573.279h584.889v-369.888z m70.906 117.83c0-8.758-7.115-15.879-15.873-15.879-8.764 0-15.879 7.121-15.879 15.879V455.434c0 8.758 7.115 15.872 15.879 15.872 8.758 0 15.873-7.114 15.873-15.872v-134.213z"  horiz-adv-x="1024" />

    
    <glyph glyph-name="shuju21" unicode="&#59346;" d="M458.404 749.486L333.968 482.877h248.878zM130.689 47.366h655.436l-89.65 192.07H220.34zM324.17 461.891l-94.038-201.468h456.552l-94.046 201.468zM604.364 574.653m-24.626 0a24.626 24.626 0 1 1 49.252 0 24.626 24.626 0 1 1-49.252 0ZM604.363 574.653h190.276M785.673 169.473m-24.626 0a24.626 24.626 0 1 1 49.252 0 24.626 24.626 0 1 1-49.252 0ZM785.673 169.473h190.274M234.998 373.191m-24.626 0a24.626 24.626 0 1 1 49.252 0 24.626 24.626 0 1 1-49.252 0ZM234.998 373.191H44.724"  horiz-adv-x="1024" />

    
    <glyph glyph-name="shuju22" unicode="&#59349;" d="M207.243 56.659c0-41.946-34.012-75.95-75.949-75.95-41.956 0-75.959 34.004-75.959 75.95V711.74c0 41.946 34.003 75.949 75.959 75.949 41.937 0 75.949-34.003 75.949-75.949v-655.081zM460.851 56.659c0-41.946-34.003-75.95-75.949-75.95-41.957 0-75.959 34.004-75.959 75.95V406.9c0 41.956 34.003 75.959 75.959 75.959 41.946 0 75.949-34.003 75.949-75.959v-350.241zM714.459 56.659c0-41.946-34.004-75.95-75.949-75.95-41.955 0-75.959 34.004-75.959 75.95V593.902c0 41.946 34.004 75.949 75.959 75.949 41.945 0 75.949-34.002 75.949-75.949v-537.243zM968.067 56.659c0-41.946-34.004-75.95-75.949-75.95-41.947 0-75.959 34.004-75.959 75.95v414.29c0 41.936 34.012 75.938 75.959 75.938 41.945 0 75.949-34.003 75.949-75.938v-414.29z"  horiz-adv-x="1024" />

    
    <glyph glyph-name="shuju23" unicode="&#59350;" d="M1005.433 506.537c0 169.883-137.719 307.606-307.602 307.606-68.281 0-131.357-22.256-182.389-59.899 69.497-51.259 116.641-131.052 124.148-222.089 108.046-47.727 183.461-155.8 183.461-281.509 0-8.627-0.379-17.166-1.072-25.616 108.039 47.726 183.454 155.799 183.454 281.507zM389.792 529.502c7.508 91.038 54.652 170.831 124.149 222.089-51.032 37.643-114.108 59.899-182.39 59.899-169.883 0-307.606-137.724-307.606-307.606 0-125.707 75.416-233.78 183.452-281.506a315.037 315.037 0 0 0-1.063 25.615c0.001 125.708 75.412 233.783 183.458 281.509zM513.442 256.947c-51.032-37.633-114.108-59.9-182.389-59.9-44.181 0-86.178 9.334-124.154 26.104 13.023-157.896 145.282-281.988 306.542-281.988 161.26 0 293.519 124.094 306.538 281.988-37.968-16.771-79.966-26.104-124.149-26.104-68.28 0-131.356 22.267-182.388 59.9zM390.293 539.617a308.892 308.892 0 0 1-1.072-25.618c0-101.611 49.275-191.695 125.222-247.71 75.946 56.016 125.222 146.1 125.222 247.71 0 8.627-0.37 17.167-1.072 25.618-37.971 16.769-79.969 26.104-124.148 26.104-44.183 0-86.181-9.335-124.152-26.104z"  horiz-adv-x="1024" />

    
    <glyph glyph-name="shangzhang" unicode="&#59298;" d="M556.8 640l153.6-160c6.4-6.4 12.8-6.4 12.8 0l38.4 32c6.4 6.4 6.4 12.8 0 12.8l-192 204.8-32 38.4s-6.4 6.4-6.4 0h-6.4l-38.4-38.4s-64-70.4-198.4-204.8V512l32-32c6.4-6.4 12.8-6.4 12.8 0L492.8 640v-633.6c0-6.4 6.4-12.8 12.8-12.8h44.8c6.4 0 12.8 6.4 12.8 12.8L556.8 640z"  horiz-adv-x="1024" />

    
    <glyph glyph-name="down1" unicode="&#59299;" d="M467.2 128l-153.6 160c-6.4 6.4-12.8 6.4-12.8 0l-38.4-32c-6.4-6.4-6.4-12.8 0-12.80000001l192-204.79999999 32-38.4s6.4-6.4 6.40000001 0l6.4 0 38.39999999 38.4s64 70.4 198.4 204.79999999L736 256l-32 32c-6.4 6.4-12.8 6.4-12.80000001 0L531.2 128.00000001l-1e-8 633.59999999c0 6.4-6.4 12.8-12.8 12.8l-44.79999999 0c-6.4 0-12.8-6.4-12.8-12.8L467.2 128z"  horiz-adv-x="1024" />

    
    <glyph glyph-name="dbfwenjianshujudaoru" unicode="&#59667;" d="M313.837266 237.515764c-8.739035 3.501754-22.641673 5.254677-41.669028 5.254677l-51.737338 0 0-202.836685 52.547797 0c21.240767 0 37.318954 3.051499 48.270377 9.153474 10.952446 6.095835 19.360953 15.903202 25.261337 29.418007 7.78122 17.995863 11.689227 39.541575 11.689227 64.671928 0 26.909883-4.130064 48.074925-12.428054 63.463404C337.512479 222.036211 326.855768 232.333742 313.837266 237.515764zM552.203142 165.081035c8.518001 2.536776 15.045671 6.795776 19.654642 12.769838 4.573155 5.974062 6.895037 14.093996 6.895037 24.355711 0 9.533121-2.100848 17.480116-6.305613 23.813359-4.166903 6.341429-9.733689 10.721179-16.630772 13.145391-6.930853 2.39863-19.396769 3.605108-37.354769 3.605108l-49.561789 0 0-80.223113 53.470819 0C536.345989 162.547329 546.302759 163.38644 552.203142 165.081035zM563.193451 126.417457c-7.892761 3.199878-20.246113 4.793166-37.134759 4.793166l-57.158814 0 0-91.275843 61.47205 0c13.608949 0 23.601534 1.096984 30.05348 3.263323 9.329483 3.134387 16.410762 8.316409 21.277606 15.487739 4.868891 7.181563 7.30129 16.207124 7.30129 27.075659 0 10.021238-2.322905 18.503423-7.005554 25.444509C577.351915 118.13891 571.084165 123.209392 563.193451 126.417457zM699.798688 831.696462 96.270089 831.696462l0-895.3919 831.458799 0L927.728888 607.352951 699.798688 831.696462zM128.241244 639.831666 320.12446 639.831666 320.12446 767.76336l191.883215-191.884238L320.12446 384.005117l0 127.913275L128.241244 511.918391 128.241244 639.831666zM376.895441 66.292078c-9.994632-20.956288-22.826891-35.80753-38.498826-44.557822-15.671934-8.738012-36.174897-13.116739-61.507866-13.116739l-89.12997 0L187.75878 274.115334l85.219917 0c21.092387 0 37.09792-1.641383 48.048319-4.904707 14.382569-4.223185 26.846438-11.939937 37.393655-23.175839 10.509355-11.210319 18.733667-25.370831 24.633027-42.4713 5.862521-17.084097 8.812713-37.338397 8.812713-60.754712C391.867434 112.747109 386.889049 87.246319 376.895441 66.292078zM611.500667 43.307597c-7.486508-12.131295-17.444301-20.954241-29.871331-26.457582-12.461823-5.476735-29.573549-8.232498-51.329039-8.232498L436.228781 8.617517 436.228781 274.115334l92.741217 0c18.771529 0 33.630958-2.581802 44.583404-7.698333 10.990309-5.134951 19.950378-13.109576 26.955932-23.978111 6.969739-10.860349 10.472516-22.862707 10.472516-36.019355 0-12.177344-3.02387-23.158443-9.033747-32.929993-6.04774-9.771551-14.527878-17.626449-25.480324-23.536043 14.305821-4.590552 25.590841-12.409634 33.850969-23.462365 8.260128-11.054777 12.353352-24.679076 12.353352-40.868803C622.673124 69.556425 618.950336 55.457312 611.500667 43.307597zM836.220754 242.770442 702.361047 242.770442l0-82.2247 115.79119 0 0-31.326473L702.361047 129.219269l0-120.601752-32.670074 0L669.690974 274.115334l166.528758 0L836.219731 242.770442zM671.902338 607.850278 671.902338 799.725306l191.848423-191.874005L671.902338 607.851301z"  horiz-adv-x="1024" />

    
    <glyph glyph-name="daochuExcel" unicode="&#59297;" d="M595.2 140.8h128v-88.32L954.88 185.6 723.2 320v-89.6h-128zM266.24 761.6c0 6.4 6.4 12.8 12.8 12.8H652.8c3.84 0 7.68 0 12.8-1.28v-198.4H864c1.28-5.12 1.28-29.44 1.28-33.28v-252.16l49.92-30.72v281.6c0 34.56-20.48 102.4-43.52 126.72L760.32 778.24C736 802.56 688.64 821.76 654.08 821.76H279.04c-34.56 0-62.72-28.16-62.72-62.72V633.6h49.92v128z m449.28-10.24c3.84-2.56 6.4-5.12 8.96-7.68l111.36-111.36c2.56-2.56 5.12-5.12 7.68-8.96h-128v128zM595.2 510.72H800v-58.88H595.2z m270.08-503.04c0-6.4-6.4-12.8-12.8-12.8H279.04c-6.4 0-12.8 6.4-12.8 12.8v42.24h-49.92v-42.24c0-34.56 28.16-62.72 62.72-62.72h574.72c34.56 0 62.72 28.16 62.72 62.72V112.64l-49.92-29.44v-75.52zM537.6 576H69.12v-468.48H537.6V576zM367.36 208.64l-64 94.72-28.16-43.52h28.16v-52.48H160l104.96 153.6L172.8 499.2h76.8l55.04-80.64 55.04 80.64h76.8l-92.16-138.24 104.96-153.6h-81.92z m227.84 185.6H800v-58.88H595.2z"  horiz-adv-x="1024" />

    
    <glyph glyph-name="iconshujuliandong" unicode="&#59296;" d="M601.44 116.96000000000004l-107.232-107.264c-49.152-49.152-113.696-73.728-178.24-73.728-64.544 0-129.088 24.576-178.24 73.728-98.304 98.304-98.304 258.208 0 356.512l107.264 107.264 39.616-39.616-107.264-107.264c-76.448-76.448-76.448-200.832 0-277.28 76.448-76.448 200.832-76.448 277.28 0l107.232 107.264c76.448 76.416 76.416 200.8 0 277.28l39.616 39.616C699.712 375.13599999999997 699.712 215.20000000000005 601.44 116.96000000000004zM886.304 401.824l-107.232-107.232-39.616 39.616 107.232 107.232c76.416 76.48 76.448 200.864 0 277.312-76.448 76.416-200.832 76.448-277.28 0l-107.232-107.232c-76.416-76.448-76.416-200.832 0-277.312l-39.616-39.616c-98.24 98.304-98.24 258.24 0 356.512l107.264 107.232c98.24 98.272 258.176 98.272 356.48 0C984.576 660.096 984.576 500.128 886.304 401.824z"  horiz-adv-x="1024" />

    
    <glyph glyph-name="hesuangongshiguanli" unicode="&#59920;" d="M0-128v61.952h27.648c4.096-0.512 8.192-1.024 12.288-1.024 23.552 0 80.896 9.728 103.424 97.792l114.688 458.24h-189.44V551.424h204.8L314.88 716.8c15.36 50.176 39.936 88.576 76.288 117.248l0.512 0.512c49.152 41.472 106.496 61.44 174.08 61.44 44.032 0 85.504-8.704 114.176-14.848v-39.424c-32.256 7.168-69.12 13.824-106.496 13.824-49.664 0-90.624-12.288-124.928-36.864-20.48-13.824-64.512-54.272-75.264-87.552v-0.512l-47.104-179.2h148.48v-61.952h-163.84l-110.592-440.832v-1.024c-14.848-73.216-33.792-120.832-58.368-145.408l-1.536-1.536-1.536-1.536C119.296-124.928 67.584-128 30.72-128H0z m879.104 205.824l-83.456 166.4c-5.12 18.432-20.992 30.72-40.448 30.72-12.8 0-25.6-5.632-36.352-16.384l-0.512-0.512-160.256-180.736H480.768v61.952H552.96c11.264 0 20.48 4.096 26.112 6.656h11.776l143.872 167.936v43.008l-47.616 102.912-4.608 4.608c-9.216 9.216-24.576 24.576-47.104 24.576h-86.016V551.424h144.896l55.808-111.616c5.12-18.432 20.992-30.72 40.448-30.72 12.8 0 25.6 5.632 36.352 16.384l119.296 125.952H1024v-61.952h-72.192c-22.528 0-37.888-15.36-47.104-24.576L811.008 363.52v-44.032l75.264-150.528 4.096-4.096c9.216-9.216 24.576-24.576 47.104-24.576h17.408v-61.952h-75.776z"  horiz-adv-x="1024" />

    
    <glyph glyph-name="move1" unicode="&#59267;" d="M192 528h416v-32h-416zM192 400h416v-32h-416zM192 272h416v-32h-416zM736 576h96l-128 128-128-128h96v-384h-96l128-128 128 128h-96z"  horiz-adv-x="1024" />

    
    <glyph glyph-name="weibiaoti1fuben" unicode="&#58880;" d="M876.8 700.8h-726.4c-28.8 0-51.2-22.4-51.2-51.2v-726.4c0-28.8 22.4-51.2 51.2-51.2h726.4c28.8 0 51.2 22.4 51.2 51.2v726.4c0 28.8-22.4 51.2-51.2 51.2zM556.8 57.6c0-22.4-16-35.2-35.2-35.2h-9.6c-19.2 0-35.2 16-35.2 35.2v291.2c0 19.2 16 35.2 35.2 35.2h9.6c19.2 0 35.2-16 35.2-35.2l-0-291.2zM518.4 470.4c-22.4 0-41.6 19.2-41.6 41.6s19.2 41.6 41.6 41.6 41.6-19.2 41.6-41.6c-3.2-25.6-19.2-41.6-41.6-41.6z"  horiz-adv-x="1024" />

    
    <glyph glyph-name="my" unicode="&#59275;" d="M800 512c0 160-128 288-288 288s-288-128-288-288c0-108.8 57.6-201.6 147.2-249.6-121.6-48-214.4-153.6-240-288-3.2-16 6.4-35.2 25.6-38.4h6.4c16 0 28.8 9.6 32 25.6 28.8 150.4 160 259.2 313.6 262.4h6.4c156.8 0 284.8 128 284.8 288zM288 512c0 124.8 99.2 224 224 224s224-99.2 224-224c0-121.6-99.2-220.8-220.8-224h-9.6c-121.6 3.2-217.6 102.4-217.6 224zM723.2 220.8c-16 9.6-35.2 6.4-44.8-9.6-9.6-16-6.4-35.2 9.6-44.8 73.6-51.2 124.8-121.6 140.8-204.8 3.2-16 16-25.6 32-25.6h6.4c16 3.2 28.8 19.2 25.6 38.4-19.2 99.2-80 185.6-169.6 246.4z"  horiz-adv-x="1024" />

    
    <glyph glyph-name="myfill" unicode="&#59276;" d="M649.6 262.4c86.4 48 147.2 144 147.2 249.6 0 160-128 288-288 288s-288-128-288-288c0-108.8 57.6-201.6 147.2-249.6-121.6-48-214.4-153.6-240-288-3.2-9.6 0-19.2 6.4-25.6 3.2-9.6 12.8-12.8 22.4-12.8h704c9.6 0 19.2 3.2 25.6 12.8 6.4 6.4 9.6 16 6.4 25.6-25.6 134.4-121.6 240-243.2 288z"  horiz-adv-x="1024" />

    
    <glyph glyph-name="picture" unicode="&#58889;" d="M992.16 679.168c-16.48 16.48-36.272 24.72-59.424 24.72L91.264 703.888c-23.136 0-42.944-8.24-59.424-24.72s-24.72-36.288-24.72-59.424l0-639.504c0-23.136 8.24-42.944 24.72-59.424s36.288-24.72 59.424-24.72l841.472 0c23.136 0 42.944 8.24 59.424 24.72s24.72 36.288 24.72 59.424L1016.88 619.744C1016.88 642.88 1008.64 662.688 992.16 679.168zM949.552-19.76c0-4.56-1.664-8.496-4.992-11.84-3.328-3.328-7.28-4.976-11.84-4.976L91.264-36.576c-4.56 0-8.496 1.664-11.84 4.976-3.328 3.344-4.992 7.28-4.992 11.84L74.432 619.744c0 4.56 1.664 8.496 4.992 11.84 3.328 3.328 7.28 4.992 11.84 4.992l841.472 0c4.544 0 8.496-1.664 11.824-4.992 3.328-3.344 4.992-7.28 4.992-11.84L949.552-19.76 949.552-19.76zM242.736 367.296c28.048 0 51.888 9.808 71.536 29.44 19.632 19.632 29.44 43.472 29.44 71.52s-9.824 51.888-29.44 71.536c-19.632 19.632-43.472 29.44-71.536 29.44-28.048 0-51.888-9.824-71.52-29.44-19.632-19.632-29.44-43.472-29.44-71.536 0-28.048 9.808-51.888 29.44-71.52C190.848 377.12 214.688 367.296 242.736 367.296zM394.192 215.84 310.048 299.984 141.76 131.696 141.76 30.72 882.24 30.72 882.24 266.336 663.472 485.104Z"  horiz-adv-x="1024" />

    
    <glyph glyph-name="weixin1" unicode="&#59440;" d="M567.274908 302.746554c-9.54847 0-19.153222-9.602705-19.153222-19.134803 0-9.691733 9.603729-19.169595 19.153222-19.169595 14.478759 0 23.955598 9.477862 23.955598 19.169595C591.231529 293.143848 581.753667 302.746554 567.274908 302.746554zM672.593582 302.746554c-9.478885 0-19.027355-9.602705-19.027355-19.134803 0-9.691733 9.54847-19.169595 19.027355-19.169595 14.351869 0 23.955598 9.477862 23.955598 19.169595C696.54918 293.143848 686.945451 302.746554 672.593582 302.746554zM370.992499 441.611252c-14.33345 0-28.828582-9.459442-28.828582-23.88192 0-14.350846 14.495132-23.951505 28.828582-23.951505 14.351869 0 23.883967 9.601682 23.883967 23.951505C394.876466 432.151809 385.344369 441.611252 370.992499 441.611252zM505.013889 393.777827c14.405081 0 23.955598 9.601682 23.955598 23.951505 0 14.422478-9.550517 23.88192-23.955598 23.88192-14.351869 0-28.77537-9.459442-28.77537-23.88192C476.239542 403.378485 490.662019 393.777827 505.013889 393.777827zM512.251733 750.27724c-247.060909 0-447.565479-200.392006-447.565479-447.529663s200.50457-447.529663 447.565479-447.529663c247.087515 0 447.495894 200.392006 447.495894 447.529663S759.338225 750.27724 512.251733 750.27724zM433.202353 197.312246c-23.902386 0-43.109844 4.874007-67.064418 9.602705l-66.938552-33.573653 19.135826 57.617256c-47.911196 33.483602-76.614935 76.67838-76.614935 129.24255 0 91.102904 86.216617 162.836669 191.482079 162.836669 94.130867 0 176.6073-57.292867 193.188954-134.440945-6.079462 0.683569-12.230556 1.116427-18.434861 1.116427-90.964758 0-162.77834-67.868737-162.77834-151.526065 0-13.899568 2.158153-27.316136 5.900384-40.119743C445.161732 197.599795 439.208137 197.312246 433.202353 197.312246zM715.63077 130.253968l14.423501-47.870264-52.515051 28.7723c-19.153222-4.800329-38.395472-9.603729-57.46069-9.603729-91.108021 0-162.849972 62.257949-162.849972 138.936329 0 76.55456 71.741951 138.938376 162.849972 138.938376 86.001723 0 162.635077-62.382792 162.635077-138.938376C782.712585 197.312246 754.081501 159.063107 715.63077 130.253968z"  horiz-adv-x="1024" />

    
    <glyph glyph-name="iconfontedit" unicode="&#59252;" d="M800-64 224-64c-52.928 0-96 43.072-96 96L128 672c0 52.928 43.072 96 96 96l448 0c17.696 0 32-14.336 32-32s-14.304-32-32-32L224 704C206.368 704 192 689.632 192 672l0-640c0-17.664 14.368-32 32-32l576 0c17.664 0 32 14.336 32 32L832 544c0 17.664 14.304 32 32 32s32-14.336 32-32l0-512C896-20.928 852.928-64 800-64zM612 448c-8.192 0-16.384 3.136-22.624 9.376-12.512 12.512-12.512 32.736 0 45.248l318.016 318.016c12.512 12.512 32.736 12.512 45.248 0s12.512-32.736 0-45.248l-318.016-318.016C628.384 451.104 620.192 448 612 448zM480 448 288 448c-17.664 0-32 14.336-32 32s14.336 32 32 32l192 0c17.664 0 32-14.336 32-32S497.664 448 480 448zM672 256 288 256c-17.664 0-32 14.304-32 32s14.336 32 32 32l384 0c17.696 0 32-14.304 32-32S689.696 256 672 256z"  horiz-adv-x="1024" />

    
    <glyph glyph-name="android" unicode="&#58881;" d="M146.377 579.318c-30.567 0-55.235-24.828-55.235-55.394v-237.642c0-30.563 24.669-55.394 55.235-55.394h7.797c30.563 0 55.237 24.833 55.237 55.394v237.642c0 30.567-24.677 55.394-55.237 55.394h-7.797zM343.431 88.433v-142.621c0-30.563 24.669-55.394 55.227-55.394h7.806c30.563 0 55.227 24.833 55.227 55.394v142.621h102.513v-142.621c0-30.563 24.669-55.394 55.227-55.394h7.806c30.563 0 55.227 24.833 55.227 55.394v142.621h31.518c39.153 0 70.992 31.833 70.992 71.154v411.777c0 5.414-0.637 10.672-1.747 15.763h-540.557c-1.109-5.091-1.747-10.345-1.747-15.763v-411.777c0-39.318 31.833-71.154 70.992-71.154h31.518zM871.724 579.318c-30.563 0-55.237-24.828-55.237-55.394v-237.642c0-30.563 24.677-55.394 55.237-55.394h7.797c30.567 0 55.235 24.833 55.235 55.394v237.642c0 30.567-24.669 55.394-55.235 55.394h-7.797zM777.018 611.002c-14.322 79.741-61.275 147.711-126.064 188.624l42.5 58.097c2.547 3.659 3.024 8.431 0.801 10.507-2.076 2.222-6.054 1.109-8.757-2.547l-44.091-60.485c-39.153 22.602-84.357 35.332-132.431 35.332-50.938 0-98.529-14.322-139.433-39.474l-52.85 72.585c-2.708 3.506-6.531 4.773-8.753 2.547-2.233-2.234-1.76-6.843 0.953-10.507l51.412-70.518c-61.286-41.221-105.537-107.279-119.38-184.161h536.089zM367.142 713.827c0 13.213 10.507 23.877 23.557 23.877 13.054 0 23.724-10.666 23.724-23.877 0-13.051-10.667-23.712-23.724-23.712-13.051 0-23.557 10.667-23.557 23.712zM595.723 713.827c0 13.213 10.666 23.877 23.71 23.877 13.052 0 23.557-10.666 23.557-23.877 0-13.051-10.507-23.712-23.557-23.712-13.051 0-23.71 10.667-23.71 23.712z"  horiz-adv-x="1024" />

    
    <glyph glyph-name="chart1" unicode="&#58992;" d="M1024.562-0.211 0-0.211 0 768.211l64.035 0 0-704.387 960.527 0L1024.562-0.211zM320.176 127.859l-128.07 0L192.106 384l128.07 0L320.176 127.859zM512.281 127.859 384.211 127.859 384.211 640.141 512.281 640.141 512.281 127.859zM704.386 127.859l-128.07 0L576.316 512.07l128.07 0L704.386 127.859zM896.492 127.859l-128.07 0L768.422 704.176l128.07 0L896.492 127.859z"  horiz-adv-x="1025" />

    
    <glyph glyph-name="yousanjiao" unicode="&#58885;" d="M342.743 671.999l-0.004-0.002c-7.081 5.79-16.128 9.267-25.988 9.267-22.69 0-41.084-18.394-41.088-41.082l-0.177-0.083 0.182-703.881c0.086-22.618 18.445-40.928 41.084-40.928 10.762 0 20.553 4.142 27.878 10.912l411.692 350.235c9.838 7.507 16.192 19.349 16.192 32.678 0 12.943-5.991 24.481-15.344 32.013v0.011l-414.081 350.564c-0.091 0.075-0.177 0.151-0.267 0.226l-0.078 0.067v0.001z"  horiz-adv-x="1024" />

    
    <glyph glyph-name="quanmianjiance" unicode="&#58998;" d="M669.845389 422.147615l-62.13711 0-23.630297 18.398905c-2.18077 2.290269-5.670412 3.945035-9.837514 4.368704-0.738863 0.074705-1.473632 0.108476-2.199191 0.104382-3.453824 0.00614-6.919928-0.864735-9.676848-2.639233-2.838788-1.829759-4.396334-4.280695-4.64501-6.794056l-24.554387-57.768406-35.41935 109.984086c-1.595411 4.739158-7.647534 7.900303-14.260456 7.785687-5.879176 0.100289-11.478976-2.386465-13.713984-6.494213L425.773107 385.877857l-42.518365 32.866078c-2.842881 2.197144-6.736748 3.304414-10.637778 3.290087l-63.795969 0 0-20.279832 57.571922 0 54.85696-42.40375c2.872558-2.219658 6.818616-3.325905 10.762628-3.289064 5.855639-0.082892 11.426785 2.401815 13.652583 6.497283l35.909537 84.24056 35.613787-110.585819c1.572897-4.67264 7.477657-7.808201 13.982103-7.78671 7.053988-0.039911 13.239147 3.615514 14.270689 8.696473l33.009348 77.662433 12.010098-9.348351c1.213699-0.94558 2.623883-1.688536 4.142542-2.230915 2.094808-0.849385 4.52016-1.338549 7.105156-1.338549l68.137042 0L669.845389 422.147615zM680.780964 173.471257l-57.067408 84.266144c-1.782685 2.639233-3.993132 4.810793-6.476816 6.498306 32.193734 27.768746 55.608103 66.177316 64.251362 111.164015 20.389331 106.129107-49.122077 208.68568-155.23788 229.071941-106.116826 20.386261-208.68261-49.11082-229.071941-155.239927-20.386261-106.11478 49.1231-208.68261 155.239927-229.069894 45.029679-8.651446 89.421808-1.113411 127.165198 18.540128 0.649831-2.919633 1.839993-5.768654 3.617561-8.3997l57.067408-84.266144c7.556455-11.182203 22.778865-14.106953 33.959022-6.549474C685.408577 147.04413 688.333326 162.26654 680.780964 173.471257L680.780964 173.471257zM461.646826 268.200186c-79.588387 15.289951-131.719129 92.216592-116.429178 171.802932 15.289951 79.587364 92.214545 131.720152 171.802932 116.430201 79.586341-15.289951 131.720152-92.214545 116.429178-171.803956C618.160831 305.042 541.233167 252.910235 461.646826 268.200186L461.646826 268.200186zM461.646826 268.200186M803.696167 687.376745 803.696167 687.376745 803.696167 687.376745c15.077093-15.053556 29.175859-31.331045 42.167355-48.734225 71.363681-95.259027 101.387902-212.662439 84.461605-330.415838-9.202011-63.703867-31.331045-123.190486-65.88259-176.977016-9.528461-14.751666-29.196326-19.017011-43.991997-9.528461-14.708686 9.483433-19.017011 29.241354-9.532554 44.080006 29.589295 45.955816 48.518297 96.907652 56.398133 151.478073C897.276892 525.762338 752.043333 719.665651 543.515249 749.601863c-100.935579 14.4508-201.477165-11.137176-283.112263-72.404433-81.675009-61.053376-134.591687-150.349312-149.104912-251.304334C81.383352 217.409016 226.678313 23.460676 434.988421-6.431532c87.398635-12.533032 176.977016 5.788097 252.257078 51.476818 15.014669 9.138563 34.50754 4.265345 43.690107-10.70532 9.138563-14.969641 4.35233-34.551545-10.680759-43.64508-87.856075-53.393562-192.381584-74.759174-294.318004-60.13952C182.857216-34.411089 13.370137 191.694145 48.291113 434.944673c16.905829 117.753399 78.673508 221.970878 173.953002 293.252691C317.452997 799.561045 434.812404 829.584242 552.565804 812.614965 648.88605 798.822182 736.070803 754.956058 803.696167 687.376745L803.696167 687.376745zM679.873248 528.068981"  horiz-adv-x="1024" />

    
    <glyph glyph-name="iconzhuanqu59" unicode="&#59127;" d="M511.999368 9.646707c-99.990147 0-193.997027 38.939861-264.703651 109.647748-70.706623 70.706623-109.647748 164.713504-109.647748 264.702388 0 99.996462 38.939861 194.007132 109.647748 264.712492 70.70536 70.704097 164.712241 109.641432 264.703651 109.641432 99.985095 0 193.990712-38.938598 264.698598-109.641432 70.711676-70.706623 109.654063-164.717293 109.654063-264.712492 0-99.987621-38.942387-193.993238-109.654063-264.702388C705.987554 48.586568 611.9832 9.646707 511.999368 9.646707zM511.999368 707.82709c-178.558255 0-323.827721-145.269467-323.827721-323.830247 0-178.558255 145.269467-323.826458 323.827721-323.826458 178.560781 0 323.830247 145.268204 323.830247 323.826458C835.828353 562.557623 690.560149 707.82709 511.999368 707.82709zM513.19299 145.959588c-13.952114 0-25.261839 11.309725-25.261839 25.261839l0 301.930759c0 13.952114 11.309725 25.261839 25.261839 25.261839s25.261839-11.309725 25.261839-25.261839l0-301.930759C538.454829 157.269314 527.145104 145.959588 513.19299 145.959588zM513.194253 565.038336m-31.738974 0a25.128 25.128 0 1 0 63.477948 0 25.128 25.128 0 1 0-63.477948 0Z"  horiz-adv-x="1024" />

    
    <glyph glyph-name="stop1" unicode="&#59076;" d="M512 896C228.266667 896 0 667.733333 0 384c0-283.733333 228.266667-512 512-512s512 228.266667 512 512C1024 667.733333 795.733333 896 512 896zM512-55.466667C268.8-55.466667 72.533333 140.8 72.533333 384 72.533333 627.2 268.8 823.466667 512 823.466667S951.466667 627.2 951.466667 384C951.466667 140.8 755.2-55.466667 512-55.466667zM437.333333 554.666667l-21.333333 0c-17.066667 0-32-14.933333-32-32l0-277.333333c0-17.066667 14.933333-32 32-32l21.333333 0c17.066667 0 32 14.933333 32 32l0 277.333333C469.333333 539.733333 454.4 554.666667 437.333333 554.666667zM608 554.666667l-21.333333 0c-17.066667 0-32-14.933333-32-32l0-277.333333c0-17.066667 14.933333-32 32-32l21.333333 0c17.066667 0 32 14.933333 32 32l0 277.333333C640 539.733333 625.066667 554.666667 608 554.666667z"  horiz-adv-x="1024" />

    
    <glyph glyph-name="emojifill" unicode="&#59277;" d="M510.944 832c-247.04 0-448-200.96-448-448s200.96-448 448-448 448 200.96 448 448S757.984 832 510.944 832zM608 492.8c0 26.528 21.504 48 48 48s48-21.472 48-48l0-64c0-26.528-21.504-48-48-48S608 402.304 608 428.8L608 492.8zM320 492.8c0 26.528 21.472 48 48 48s48-21.472 48-48l0-64c0-26.528-21.472-48-48-48S320 402.304 320 428.8L320 492.8zM740.416 235.232c-55.008-71.52-138.24-112.576-228.416-112.576-89.184 0-171.904 40.32-226.88 110.624-10.88 13.92-8.448 34.016 5.472 44.928 13.92 10.848 34.016 8.448 44.928-5.504 42.784-54.688 107.104-86.048 176.48-86.048 70.112 0 134.88 31.904 177.664 87.552 10.784 14.016 30.848 16.672 44.864 5.888C748.544 269.312 751.2 249.216 740.416 235.232z"  horiz-adv-x="1024" />

    
    <glyph glyph-name="emojiflashfill" unicode="&#59278;" d="M510.944 832c-247.04 0-448-200.96-448-448s200.96-448 448-448 448 200.96 448 448S757.984 832 510.944 832zM256 476.672c0 8.832 7.168 16 16 16 36.352 0 62.72 26.912 62.72 64 0 8.832 7.168 16 16 16s16-7.168 16-16c0-36.32 33.728-60.256 66.336-62.4C441.472 493.728 448 486.72 448 478.304s-6.528-15.84-14.944-16.416c-31.2-2.048-60.352-29.312-65.632-59.904 0.128-1.408 0.256-2.816 0.352-4.224 0.576-8.832-6.112-16.448-14.944-16.992-0.224 0-0.416 0-0.64-0.032-0.48-0.032-0.96-0.064-1.472-0.064-0.32 0-0.672 0-0.992 0.032-8.832 0.544-15.52 8.128-14.976 16.96 0.096 1.504 0.224 3.04 0.384 4.544-5.024 33.28-31.712 58.496-63.136 58.496C263.168 460.672 256 467.84 256 476.672zM740.416 235.232c-55.008-71.52-138.24-112.576-228.416-112.576-89.184 0-171.904 40.32-226.88 110.624-10.88 13.92-8.448 34.016 5.472 44.928 13.92 10.848 34.016 8.448 44.928-5.504 42.784-54.688 107.104-86.048 176.48-86.048 70.112 0 134.88 31.904 177.664 87.552 10.784 14.016 30.848 16.672 44.864 5.888C748.544 269.312 751.2 249.216 740.416 235.232zM753.888 461.92c-31.2-2.048-60.384-29.312-65.632-59.904 0.128-1.408 0.256-2.816 0.352-4.224 0.576-8.832-6.112-16.448-14.944-16.992-0.224 0-0.448 0-0.64-0.032-0.512-0.032-0.992-0.064-1.504-0.064-0.32 0-0.672 0-0.992 0.032-8.8 0.544-15.488 8.128-14.976 16.96 0.096 1.504 0.224 3.04 0.416 4.544-5.056 33.28-31.712 58.496-63.168 58.496-8.832 0-16 7.168-16 16s7.168 16 16 16c36.352 0 62.72 26.912 62.72 64 0 8.832 7.168 16 16 16s16-7.168 16-16c0-36.32 33.728-60.256 66.336-62.4 8.416-0.576 14.944-7.552 14.944-15.968S762.272 462.464 753.888 461.92z"  horiz-adv-x="1024" />

    
    <glyph glyph-name="flashbuyfill-copy" unicode="&#59279;" d="M886.048 318.88c0 104.416 0 208.8 0 313.216 0 35.2-27.392 52.8-54.784 52.8-27.392 0-54.784-17.6-54.784-52.8 0-69.76 0-139.52 0-209.28 0-12.352-7.872-20.352-15.168-20.352-6.336 0-12.224 5.984-12.224 20.352 0 106.592 0 213.216 0 319.808 0 35.2-27.392 52.8-54.784 52.8-27.392 0-54.784-17.6-54.784-52.8 0-105.888 1.408-142.912 0-248.768-0.192-14.496-8-21.984-15.648-21.984-7.392 0-14.592 7.008-14.624 21.472-0.256 104.544-1.92 149.952-1.984 253.376-0.032 35.264-27.52 52.864-54.976 52.864-27.488 0-54.944-17.632-54.912-52.864 0.064-103.648 2.016-219.36 2.016-323.008 0-12.384-6.752-18.4-13.696-18.4-7.392 0-15.008 6.784-15.008 19.936 0 96.096-1.792 172.8-1.792 269.952 0 30.496-28.256 45.984-56.128 45.984-27.072 0-53.76-14.592-53.952-44.192-0.896-139.2-0.032-311.776-2.496-450.304-37.536 53.6-48.128 90.4-99.84 131.84-10.272 8.224-22.304 11.872-34.336 11.872-43.648 0-87.296-48.064-46.688-99.392 3.328-4.192 57.824-86.048 67.616-100.544 69.536-102.944 60.448-85.12 111.104-154.336 26.112-40.384 112.736-67.744 207.84-67.744 108 0 226.912 35.264 280.64 126.688 41.12 70.24 46.432 159.776 43.392 223.808zM702.688 260.288l-133.472-190.944c-3.296-4.704-8.576-7.296-14.048-7.296-2.272 0-4.576 0.448-6.752 1.408-7.456 3.2-11.648 11.232-9.984 19.168l22.4 108.96h-66.24c-6.336 0-12.192 3.52-15.136 9.12-2.976 5.632-2.56 12.416 1.024 17.664l129.952 189.92c4.544 6.624 13.088 9.216 20.512 6.208 7.456-3.008 11.808-10.784 10.496-18.688l-18.144-108.544h65.408c6.368 0 12.224-3.552 15.168-9.216 2.912-5.728 2.464-12.544-1.184-17.76z"  horiz-adv-x="1024" />

    
    <glyph glyph-name="beizhu" unicode="&#58903;" d="M256 663.272727l50.827636 0 0-558.545455L256 104.727273 256 663.272727 256 663.272727zM544.488727 626.618182c-126.557091 82.501818-217.437091 0-217.437091 0l0-319.697455c0 0 90.88 82.501818 217.437091 0 108.683636-70.865455 223.511273 0 223.511273 0L768 626.618182C768 626.618182 653.172364 555.752727 544.488727 626.618182L544.488727 626.618182z"  horiz-adv-x="1024" />

    
    <glyph glyph-name="text" unicode="&#59281;" d="M886.624 598.624l-191.968 191.968c-2.944 2.944-6.432 5.312-10.336 6.912C680.48 799.136 676.288 800 672 800L224 800C171.072 800 128 756.928 128 704l0-640c0-52.928 43.072-96 96-96l576 0c52.928 0 96 43.072 96 96L896 576C896 584.48 892.64 592.64 886.624 598.624zM704 690.752 818.752 576 704 576 704 690.752zM800 32 224 32c-17.632 0-32 14.336-32 32L192 704c0 17.632 14.368 32 32 32l416 0 0-192c0-17.664 14.304-32 32-32l160 0 0-448C832 46.336 817.664 32 800 32zM288 544l192 0c17.664 0 32 14.336 32 32s-14.336 32-32 32L288 608c-17.664 0-32-14.336-32-32S270.336 544 288 544zM608 416 288 416c-17.664 0-32-14.336-32-32s14.336-32 32-32l320 0c17.696 0 32 14.336 32 32S625.696 416 608 416zM608 224 288 224c-17.664 0-32-14.304-32-32s14.336-32 32-32l320 0c17.696 0 32 14.304 32 32S625.696 224 608 224z"  horiz-adv-x="1024" />

    
    <glyph glyph-name="switch" unicode="&#59797;" d="M612.704 384c0 166.848-135.264 302.112-302.112 302.112s-302.112-135.264-302.112-302.112c0-166.848 135.264-302.112 302.112-302.112s302.112 135.264 302.112 302.112zM310.592 115.456c-148.064 0-268.544 120.48-268.544 268.544s120.48 268.544 268.544 268.544c148.064 0 268.544-120.48 268.544-268.544s-120.48-268.544-268.544-268.544zM713.408 686.112l-257.472 0c19.552-9.44 37.984-20.672 55.2-33.568l202.272 0c148.096 0 268.544-120.48 268.544-268.544s-120.48-268.544-268.544-268.544l-202.272 0c-17.216-12.896-35.68-24.128-55.2-33.568l257.472 0c166.848 0 302.112 135.264 302.112 302.112s-135.264 302.112-302.112 302.112z"  horiz-adv-x="1024" />

    
    <glyph glyph-name="goodsfavor" unicode="&#59284;" d="M908.8 576c0 16-16 32-32 32h-140.8c-6.4 124.8-99.2 224-214.4 224h-16c-115.2 0-208-99.2-214.4-224h-144c-16 0-32-12.8-32-32l-19.2-528v-3.2c6.4-60.8 57.6-108.8 118.4-108.8h598.4c60.8 0 112 48 118.4 108.8v3.2l-22.4 528zM809.6 0h-595.2c-28.8 0-51.2 22.4-54.4 48l19.2 496h108.8v-96c0-19.2 12.8-32 32-32s32 12.8 32 32v144c0 96 67.2 172.8 153.6 172.8h16c83.2 0 153.6-76.8 153.6-172.8v-147.2c0-19.2 12.8-32 32-32s32 12.8 32 32v96h108.8l16-492.8c-3.2-28.8-25.6-48-54.4-48zM416 544h192c19.2 0 32 12.8 32 32s-12.8 32-32 32h-192c-19.2 0-32-12.8-32-32s16-32 32-32zM592 352c-28.8 0-54.4-9.6-76.8-28.8l-3.2-3.2-3.2 3.2c-22.4 19.2-48 28.8-76.8 28.8-60.8 0-112-48-112-108.8 0-28.8 12.8-54.4 35.2-76.8l112-108.8c12.8-16 28.8-25.6 44.8-25.6s28.8 6.4 44.8 22.4l115.2 112c16 19.2 32 38.4 32 76.8 0 60.8-51.2 108.8-112 108.8zM624 211.2l-112-108.8-112 108.8c-9.6 9.6-16 22.4-16 32 0 25.6 22.4 44.8 48 44.8 12.8 0 25.6-3.2 32-12.8l25.6-22.4c12.8-12.8 32-12.8 44.8 0 0 0 22.4 19.2 25.6 22.4 9.6 9.6 22.4 12.8 32 12.8 25.6 0 48-19.2 48-44.8 0-12.8-3.2-19.2-16-32z"  horiz-adv-x="1024" />

    
    <glyph glyph-name="musicfill" unicode="&#59285;" d="M895.456 125.44C895.552 126.304 896 127.104 896 128L896 736c0 1.056-0.512 1.984-0.608 3.008-0.032 1.664 0.448 3.232 0.16 4.928-2.88 17.408-19.328 29.184-36.8 26.304l-480-80c-17.408-2.912-29.216-19.392-26.304-36.832 0.256-1.472 1.024-2.656 1.44-4.032C352.96 646.336 352 643.328 352 640l0-429.6c-20.128 9.376-43.648 14.784-69.408 14.784-21.312 0-42.816-3.456-63.968-10.336-39.616-12.8-73.536-36.224-95.584-65.984-24.064-32.512-31.68-70.24-20.864-103.648 15.648-48.288 66.656-79.456 129.92-79.456 21.248 0 42.72 3.456 63.904 10.304 58.656 19.04 100.288 59.2 115.04 103.808C413.888 84.672 416 89.984 416 96l0 5.312c1.056 8.48 1.056 16.96 0 25.472L416 631.552l416 69.344 0-490.88c-20.32 9.632-44.096 15.2-70.176 15.2-21.28 0-42.816-3.456-63.968-10.336-39.584-12.8-73.568-36.224-95.584-65.984-24.096-32.512-31.68-70.24-20.864-103.648 15.648-48.288 66.656-79.456 129.92-79.456 21.248 0 42.752 3.456 63.904 10.304C853.472 1.44 902.176 64.32 895.456 125.44z"  horiz-adv-x="1024" />

    
    <glyph glyph-name="musicforbidfill" unicode="&#59286;" d="M616.576 165.024c-5.056-5.216-10.08-10.432-14.304-16.16-24.096-32.512-31.68-70.24-20.864-103.648 15.648-48.288 66.656-79.456 129.92-79.456 21.248 0 42.752 3.456 63.904 10.304 9.632 3.136 18.784 6.816 27.424 11.008L616.576 165.024zM416 622.592l0 8.96 416 69.312 0-476.192 64-61.216L896 736c0 1.056-0.512 1.984-0.608 3.008-0.032 1.664 0.448 3.232 0.16 4.896-2.88 17.44-19.424 29.408-36.8 26.304l-480-80C370.24 688.8 363.2 684.064 358.4 677.664L416 622.592zM352 418.08l0-207.68c-20.128 9.376-43.648 14.784-69.408 14.784-21.28 0-42.816-3.456-63.968-10.336-39.584-12.8-73.568-36.224-95.584-65.984-24.096-32.512-31.68-70.24-20.864-103.648 15.648-48.288 66.656-79.456 129.92-79.456 21.248 0 42.752 3.456 63.904 10.304 58.656 19.04 100.32 59.2 115.04 103.808C413.92 84.672 416 89.984 416 96l0 5.216c1.056 8.512 1.056 17.024 0 25.6l0 230.048L352 418.08zM928-32c-7.968 0-15.904 2.944-22.112 8.864l-736 704C157.12 693.088 156.672 713.344 168.864 726.112c12.192 12.736 32.48 13.216 45.248 0.992l736-704c12.736-12.224 13.216-32.48 0.992-45.248C944.832-28.672 936.448-32 928-32z"  horiz-adv-x="1024" />

    
    <glyph glyph-name="iconfont" unicode="&#59000;" d="M366.056431 88.440579 261.534777 88.440579C177.177759 88.440579 108.8 156.83224 108.8 241.221802L108.8 637.618778C108.8 722.031112 177.231078 790.4 261.82117 790.4L761.622307 790.4C846.146694 790.4 914.643478 721.999138 914.643478 637.618778L914.643478 241.221802C914.643478 156.739315 846.349062 88.440579 761.666774 88.440579L630.944451 88.440579C623.972115 88.440579 617.301424 85.596704 612.47376 80.566086L475.395974-62.274493C465.606448-72.475574 465.94008-88.681165 476.141162-98.470691 486.342243-108.260218 502.54783-107.926586 512.337357-97.725507L649.415142 45.115075 630.944451 37.240579 761.666774 37.240579C874.626765 37.240579 965.843478 128.463059 965.843478 241.221802L965.843478 637.618778C965.843478 750.292191 874.407626 841.6 761.622307 841.6L261.82117 841.6C148.964515 841.6 57.6 750.318517 57.6 637.618778L57.6 241.221802C57.6 128.55759 148.89845 37.240579 261.534777 37.240579L366.056431 37.240579C380.194922 37.240579 391.656432 48.70209 391.656432 62.840579 391.656432 76.979069 380.194922 88.440579 366.056431 88.440579L366.056431 88.440579ZM279.605797 508.8 672.417392 508.8C686.555882 508.8 698.017392 520.26151 698.017392 534.4 698.017392 548.53849 686.555882 560 672.417392 560L279.605797 560C265.467308 560 254.005797 548.53849 254.005797 534.4 254.005797 520.26151 265.467308 508.8 279.605797 508.8L279.605797 508.8ZM279.605797 348.8 743.83768 348.8C757.97617 348.8 769.43768 360.26151 769.43768 374.4 769.43768 388.53849 757.97617 400 743.83768 400L279.605797 400C265.467308 400 254.005797 388.53849 254.005797 374.4 254.005797 360.26151 265.467308 348.8 279.605797 348.8L279.605797 348.8Z"  horiz-adv-x="1024" />

    
    <glyph glyph-name="icon1" unicode="&#59003;" d="M177.61321 667.997146c-17.712407 18.96698-15.565511 49.855478 4.787026 68.862367s51.321876 19.045775 69.034283 0.078795l594.923618-637.035738c17.712407-18.96698 15.560394-49.860595-4.793166-68.867484-20.352537-19.007913-51.315736-19.040658-69.029166-0.073678L177.61321 667.997146zM137.811716 34.495908c-17.71036 18.96391-15.562441 49.852408 4.790096 68.860321l674.574702 629.981065c20.352537 19.007913 51.315736 19.040658 69.026096 0.076748 17.712407-18.96698 15.565511-49.855478-4.787026-68.862367L206.840882 34.570609C186.487322 15.562696 155.524123 15.529951 137.811716 34.495908z"  horiz-adv-x="1024" />

    
    <glyph glyph-name="facebook2" unicode="&#58899;" d="M446.0539 800C199.7003 800 0 600.2997 0 353.9461 0 107.6923 199.7003-92.008 446.0539-92.008S892.008 107.6923 892.008 353.9461C892.008 600.2997 692.3077 800 446.0539 800zM564.036 355.8442h-77.22277722277722c0-123.4765 0-275.4246 0-275.4246H372.3276723276723c0 0 0 150.4496 0 275.4246h-54.44555444555445v97.2027972027972h54.44555444555445v63.03696303696304c0 45.1548 21.3786 115.4845 115.5844 115.4845l84.7153-0.2997v-94.40559440559441c0 0-51.5485 0-61.5385 0-9.99 0-24.2757-4.995-24.2757-26.4735v-57.24275724275724h87.21278721278722L564.036 355.8442z"  horiz-adv-x="1000" />

    
    <glyph glyph-name="wifi1" unicode="&#58906;" d="M410.957211 183.214021c-2.802836-2.055822-4.479011-5.04183-4.6673-8.591679-0.187265-3.358491 0.934279-6.718005 3.359514-9.147334l93.160773-93.158726c2.241041-2.238994 5.228071-3.359514 8.212032-3.359514 3.177366 0 5.975085 1.307785 8.218172 3.359514l93.158726 93.158726c2.425236 2.429329 3.545756 5.788843 3.360538 9.147334-0.187265 3.363607-2.056845 6.53688-4.6673 8.405437C551.724235 226.710674 470.138078 226.710674 410.957211 183.214021L410.957211 183.214021zM510.834966 382.97567c-80.088036 0-157.75493-29.126364-218.616066-81.962733-7.2798-6.344498-8.026814-17.36039-1.678222-24.639167 6.345522-7.283894 17.361413-8.03193 24.64019-1.684362 54.517661 47.235814 123.968429 73.371054 195.654099 73.371054 71.692832 0 141.140531-26.13524 195.659215-73.371054 3.359514-2.796696 7.466042-4.291746 11.386328-4.291746 4.854565 0 9.708106 2.050706 13.253862 5.976108 6.348592 7.278777 5.602601 18.294668-1.678222 24.639167C668.595013 353.849306 591.11436 382.97567 510.834966 382.97567L510.834966 382.97567zM510.834966 382.97567M510.834966 541.103084c-122.280997 0-239.7105-45.552475-330.632279-128.446417-7.091512-6.532787-7.653307-17.547655-1.116427-24.642237 3.359514-3.736091 8.213056-5.78782 12.880355-5.78782 4.29277 0 8.399297 1.496074 11.758812 4.481058 84.572164 76.914764 193.603393 119.482255 307.10954 119.482255 113.511263 0 222.542492-42.38125 307.113633-119.482255 7.092535-6.535857 18.110473-5.975085 24.64019 1.121544 6.537903 7.092535 5.977132 18.10945-1.116427 24.64019C750.552629 495.364367 633.12108 541.103084 510.834966 541.103084L510.834966 541.103084zM510.834966 541.103084M953.487551 524.111085c-120.975259 112.76425-278.17351 174.934195-442.466344 174.934195-164.473959 0-321.671187-62.169945-442.461227-174.934195-7.092535-6.53074-7.465019-17.547655-0.935302-24.64019 6.53688-7.096628 17.552771-7.470135 24.645306-0.934279C206.715527 605.324758 355.323123 664.131095 511.022231 664.131095c155.519006 0 304.311821-58.806337 418.756339-165.594479 3.360538-3.173273 7.653307-4.6673 11.9471-4.6673 4.6673 0 9.334599 1.86958 12.69309 5.601578C960.769398 506.56343 960.393845 517.579321 953.487551 524.111085L953.487551 524.111085zM953.487551 524.111085"  horiz-adv-x="1024" />

    
    </font>
</defs>
</svg>
